o machiolation_x8

g machiolation_x8
v -7 0 0
v -6.75 0 0
v -7 0.5 -0.25
v -6.75 0.5 -0.25
v -6.734923 0.5868241 -0.25
v -6.734923 0.5868241 0
v -7 1 -0.25
v -6.883022 1 -0.25
v -7 1 0
v -6.883022 1 0
v -6.691511 0.6631759 -0.25
v -6.691511 0.6631759 0
v -6.75 1 -0.25
v -6.75 1 0
v -6.625 0.7198464 -0.25
v -6.625 0.7198464 0
v -6.586824 1 -0.25
v -6.586824 1 0
v -6.543412 0.75 -0.25
v -6.543412 0.75 0
v -6.413176 1 -0.25
v -6.413176 1 0
v -6.456588 0.75 -0.25
v -6.456588 0.75 0
v -6.25 1 -0.25
v -6.25 1 0
v -6.375 0.7198463 -0.25
v -6.375 0.7198463 0
v -6.116978 1 -0.25
v -6.116978 1 0
v -6.308489 0.6631759 -0.25
v -6.308489 0.6631759 0
v -6 1 -0.25
v -6 1 0
v -6.265077 0.5868242 -0.25
v -6.265077 0.5868242 0
v -6.25 0.5 -0.25
v -6.25 0 0
v -6 0 0
v -6 0.5 -0.25
v -1 0 0
v -0.75 0 0
v -1 0.5 -0.25
v -0.75 0.5 -0.25
v -0.7349234 0.5868241 -0.25
v -0.7349234 0.5868241 0
v -1 1 -0.25
v -0.8830223 1 -0.25
v -1 1 0
v -0.8830223 1 0
v -0.6915112 0.6631759 -0.25
v -0.6915112 0.6631759 0
v -0.75 1 -0.25
v -0.75 1 0
v -0.625 0.7198464 -0.25
v -0.625 0.7198464 0
v -0.5868239 1 -0.25
v -0.5868239 1 0
v -0.5434122 0.75 -0.25
v -0.5434122 0.75 0
v -0.4131761 1 -0.25
v -0.4131761 1 0
v -0.4565878 0.75 -0.25
v -0.4565878 0.75 0
v -0.25 1 -0.25
v -0.25 1 0
v -0.375 0.7198463 -0.25
v -0.375 0.7198463 0
v -0.1169777 1 -0.25
v -0.1169777 1 0
v -0.3084888 0.6631759 -0.25
v -0.3084888 0.6631759 0
v 0 1 -0.25
v 0 1 0
v -0.2650766 0.5868242 -0.25
v -0.2650766 0.5868242 0
v 0 0.5 -0.25
v 0 0 0
v -0.25 0.5 -0.25
v -0.25 0 0
v -8 0 0
v -7.75 0 0
v -8 0.5 -0.25
v -7.75 0.5 -0.25
v -8 1 -0.25
v -8 1 0
v -7.734923 0.5868241 -0.25
v -7.734923 0.5868241 0
v -7.883022 1 -0.25
v -7.883022 1 0
v -7.691511 0.6631759 -0.25
v -7.691511 0.6631759 0
v -7.75 1 -0.25
v -7.75 1 0
v -7.625 0.7198464 -0.25
v -7.625 0.7198464 0
v -7.586824 1 -0.25
v -7.586824 1 0
v -7.543412 0.75 -0.25
v -7.543412 0.75 0
v -7.413176 1 -0.25
v -7.413176 1 0
v -7.456588 0.75 -0.25
v -7.456588 0.75 0
v -7.25 1 -0.25
v -7.25 1 0
v -7.375 0.7198463 -0.25
v -7.375 0.7198463 0
v -7.116978 1 -0.25
v -7.116978 1 0
v -7.308489 0.6631759 -0.25
v -7.308489 0.6631759 0
v -7.265077 0.5868242 -0.25
v -7.265077 0.5868242 0
v -7.25 0.5 -0.25
v -7.25 0 0
v -2 0 0
v -1.75 0 0
v -2 0.5 -0.25
v -1.75 0.5 -0.25
v -1.734923 0.5868241 -0.25
v -1.734923 0.5868241 0
v -2 1 -0.25
v -1.883022 1 -0.25
v -2 1 0
v -1.883022 1 0
v -1.691511 0.6631759 -0.25
v -1.691511 0.6631759 0
v -1.75 1 -0.25
v -1.75 1 0
v -1.625 0.7198464 -0.25
v -1.625 0.7198464 0
v -1.586824 1 -0.25
v -1.586824 1 0
v -1.543412 0.75 -0.25
v -1.543412 0.75 0
v -1.413176 1 -0.25
v -1.413176 1 0
v -1.456588 0.75 -0.25
v -1.456588 0.75 0
v -1.25 1 -0.25
v -1.25 1 0
v -1.375 0.7198463 -0.25
v -1.375 0.7198463 0
v -1.116978 1 -0.25
v -1.116978 1 0
v -1.308489 0.6631759 -0.25
v -1.308489 0.6631759 0
v -1.265077 0.5868242 -0.25
v -1.265077 0.5868242 0
v -1.25 0.5 -0.25
v -1.25 0 0
v -3 0 0
v -2.75 0 0
v -3 0.5 -0.25
v -2.75 0.5 -0.25
v -2.734923 0.5868241 -0.25
v -2.734923 0.5868241 0
v -3 1 -0.25
v -2.883022 1 -0.25
v -3 1 0
v -2.883022 1 0
v -2.691511 0.6631759 -0.25
v -2.691511 0.6631759 0
v -2.75 1 -0.25
v -2.75 1 0
v -2.625 0.7198464 -0.25
v -2.625 0.7198464 0
v -2.586824 1 -0.25
v -2.586824 1 0
v -2.543412 0.75 -0.25
v -2.543412 0.75 0
v -2.413176 1 -0.25
v -2.413176 1 0
v -2.456588 0.75 -0.25
v -2.456588 0.75 0
v -2.25 1 -0.25
v -2.25 1 0
v -2.375 0.7198463 -0.25
v -2.375 0.7198463 0
v -2.116978 1 -0.25
v -2.116978 1 0
v -2.308489 0.6631759 -0.25
v -2.308489 0.6631759 0
v -2.265077 0.5868242 -0.25
v -2.265077 0.5868242 0
v -2.25 0.5 -0.25
v -2.25 0 0
v -4 0 0
v -3.75 0 0
v -4 0.5 -0.25
v -3.75 0.5 -0.25
v -3.734923 0.5868241 -0.25
v -3.734923 0.5868241 0
v -4 1 -0.25
v -3.883022 1 -0.25
v -4 1 0
v -3.883022 1 0
v -3.691511 0.6631759 -0.25
v -3.691511 0.6631759 0
v -3.75 1 -0.25
v -3.75 1 0
v -3.625 0.7198464 -0.25
v -3.625 0.7198464 0
v -3.586824 1 -0.25
v -3.586824 1 0
v -3.543412 0.75 -0.25
v -3.543412 0.75 0
v -3.413176 1 -0.25
v -3.413176 1 0
v -3.456588 0.75 -0.25
v -3.456588 0.75 0
v -3.25 1 -0.25
v -3.25 1 0
v -3.375 0.7198463 -0.25
v -3.375 0.7198463 0
v -3.116978 1 -0.25
v -3.116978 1 0
v -3.308489 0.6631759 -0.25
v -3.308489 0.6631759 0
v -3.265077 0.5868242 -0.25
v -3.265077 0.5868242 0
v -3.25 0.5 -0.25
v -3.25 0 0
v -5 0 0
v -4.75 0 0
v -5 0.5 -0.25
v -4.75 0.5 -0.25
v -4.734923 0.5868241 -0.25
v -4.734923 0.5868241 0
v -5 1 -0.25
v -4.883022 1 -0.25
v -5 1 0
v -4.883022 1 0
v -4.691511 0.6631759 -0.25
v -4.691511 0.6631759 0
v -4.75 1 -0.25
v -4.75 1 0
v -4.625 0.7198464 -0.25
v -4.625 0.7198464 0
v -4.586824 1 -0.25
v -4.586824 1 0
v -4.543412 0.75 -0.25
v -4.543412 0.75 0
v -4.413176 1 -0.25
v -4.413176 1 0
v -4.456588 0.75 -0.25
v -4.456588 0.75 0
v -4.25 1 -0.25
v -4.25 1 0
v -4.375 0.7198463 -0.25
v -4.375 0.7198463 0
v -4.116978 1 -0.25
v -4.116978 1 0
v -4.308489 0.6631759 -0.25
v -4.308489 0.6631759 0
v -4.265077 0.5868242 -0.25
v -4.265077 0.5868242 0
v -4.25 0.5 -0.25
v -4.25 0 0
v -5.75 0 0
v -5.75 0.5 -0.25
v -5.734923 0.5868241 -0.25
v -5.734923 0.5868241 0
v -5.883022 1 -0.25
v -5.883022 1 0
v -5.691511 0.6631759 -0.25
v -5.691511 0.6631759 0
v -5.75 1 -0.25
v -5.75 1 0
v -5.625 0.7198464 -0.25
v -5.625 0.7198464 0
v -5.586824 1 -0.25
v -5.586824 1 0
v -5.543412 0.75 -0.25
v -5.543412 0.75 0
v -5.413176 1 -0.25
v -5.413176 1 0
v -5.456588 0.75 -0.25
v -5.456588 0.75 0
v -5.25 1 -0.25
v -5.25 1 0
v -5.375 0.7198463 -0.25
v -5.375 0.7198463 0
v -5.116978 1 -0.25
v -5.116978 1 0
v -5.308489 0.6631759 -0.25
v -5.308489 0.6631759 0
v -5.265077 0.5868242 -0.25
v -5.265077 0.5868242 0
v -5.25 0.5 -0.25
v -5.25 0 0

vt 1 -0.8944272
vt 0.75 -0.8944272
vt 1 -0.3354102
vt 0.75 -0.3354102
vt 0.25 -0.5328206
vt 0.25 -0.620944
vt 0 -0.5328206
vt 0 -1.113572
vt 1 -0.25
vt 0.8830222 -0.25
vt 1 0
vt 0.8830222 0
vt 0.25 -0.6345974
vt 0.25 -0.7224279
vt 0 -0.6345974
vt 0 -0.7224279
vt 0.75 -0.25
vt 0.75 0
vt -0.6574259 -0.25
vt -0.7448058 -0.25
vt -0.6574259 0
vt -0.7448058 0
vt 0.5868241 -0.25
vt 0.5868241 0
vt -0.5963808 -0.25
vt -0.6833627 -0.25
vt -0.5963808 0
vt -0.6833627 0
vt 0.4131759 -0.25
vt 0.4131759 0
vt -0.4565879 -0.25
vt -0.543412 -0.25
vt -0.4565879 0
vt -0.543412 0
vt 0.25 -0.25
vt 0.25 0
vt -0.2546257 -0.25
vt -0.3416076 -0.25
vt -0.2546257 0
vt -0.3416076 0
vt 0.1169778 -0.25
vt 0.1169778 0
vt -0.01636522 -0.25
vt -0.1037452 -0.25
vt -0.01636522 0
vt -0.1037452 0
vt 0 -0.25
vt 0 0
vt -0.25 -0.2281574
vt -0.25 -0.1403268
vt 0 -0.2281574
vt 0 -0.1403268
vt -0.1541445 -0.4419005
vt -0.1491981 -0.353916
vt 0.08201852 -0.9485829
vt 0.08696485 -0.3671927
vt 0.25 -0.8944272
vt 0 -0.8944272
vt 0.25 -0.3354102
vt 0 -0.3354102
vt 1 -0.5
vt 0.7349231 -0.4131759
vt 0.75 -0.5
vt 0.6915111 -0.3368241
vt 0.625 -0.2801537
vt 0.543412 -0.25
vt 0.4565879 -0.25
vt 0.375 -0.2801537
vt 0.3084889 -0.3368241
vt 0.2650768 -0.4131759
vt 0 -0.5
vt 0.25 -0.5
vt 0.25 -0.25
vt 0.25 0
vt 0.25 -0.5
vt 0 -1
vt -0.25 -0.5
vt -0.25 0
vt 0.9999998 -0.25
vt 0.9999998 0
vt 0.7499999 -0.25
vt 0.7499999 0
vt 0.7499998 -0.5
vt 0.6249999 -0.2801537

vn 0 -0.4472136 -0.8944272
vn 0.9412563 -0.3376928 0
vn 0.9947881 -0.09866502 -0.02572719
vn 0.9527745 -0.3033946 -0.01313123
vn 0.9983538 -0.02565003 -0.05130007
vn 0 1 0
vn 0.7705734 -0.6373512 0
vn 0.5054014 -0.8628843 0
vn 0.1760844 -0.9843751 0
vn -0.1760846 -0.9843751 0
vn -0.5054014 -0.8628843 0
vn -0.7705732 -0.6373515 0
vn -0.8693081 -0.4942707 0
vn -0.9321935 -0.1618737 -0.3237473
vn -0.9659318 -0.09377872 -0.1618737
vn -0.9996701 -0.0256838 0
vn 0 0 -1
vn 0.7071068 0.7071068 0
vn 1 0 0
vn -1 0 0
vn -0.7071068 0.7071068 0

usemtl castle_Stone
f 3/3/1 4/4/1 2/2/1 1/1/1
f 6/7/4 2/8/5 4/6/3 5/5/2
f 9/11/6 10/12/6 8/10/6 7/9/6
f 12/15/7 6/16/4 5/14/2 11/13/7
f 10/12/6 14/18/6 13/17/6 8/10/6
f 16/21/8 12/22/7 11/20/7 15/19/8
f 14/18/6 18/24/6 17/23/6 13/17/6
f 20/27/9 16/28/8 15/26/8 19/25/9
f 18/24/6 22/30/6 21/29/6 17/23/6
f 24/33/10 20/34/9 19/32/9 23/31/10
f 22/30/6 26/36/6 25/35/6 21/29/6
f 28/39/11 24/40/10 23/38/10 27/37/11
f 26/36/6 30/42/6 29/41/6 25/35/6
f 32/45/12 28/46/11 27/44/11 31/43/12
f 30/42/6 34/48/6 33/47/6 29/41/6
f 36/51/13 32/52/12 31/50/12 35/49/13
f 38/55/15 36/56/16 35/54/15 37/53/14
f 37/59/1 40/60/1 39/58/1 38/57/1
f 5/62/17 4/63/17 3/61/17 7/11/17
f 11/64/17 5/62/17 7/11/17 8/12/17
f 15/65/17 11/64/17 8/12/17 13/18/17
f 19/66/17 15/65/17 13/18/17 17/24/17
f 23/67/17 19/66/17 17/24/17 21/30/17
f 27/68/17 23/67/17 21/30/17 25/36/17
f 31/69/17 27/68/17 25/36/17 29/42/17
f 35/70/17 31/69/17 29/42/17 33/48/17
f 37/72/17 35/70/17 33/48/17 40/71/17
f 43/3/1 44/4/1 42/2/1 41/1/1
f 46/7/4 42/8/5 44/6/3 45/5/2
f 49/11/6 50/12/6 48/10/6 47/9/6
f 52/15/7 46/16/4 45/14/2 51/13/7
f 50/12/6 54/18/6 53/17/6 48/10/6
f 56/21/8 52/22/7 51/20/7 55/19/8
f 54/18/6 58/24/6 57/23/6 53/17/6
f 60/27/9 56/28/8 55/26/8 59/25/9
f 58/24/6 62/30/6 61/29/6 57/23/6
f 64/33/10 60/34/9 59/32/9 63/31/10
f 62/30/6 66/74/6 65/73/6 61/29/6
f 68/39/11 64/40/10 63/38/10 67/37/11
f 66/74/6 70/42/6 69/41/6 65/73/6
f 72/45/12 68/46/11 67/44/11 71/43/12
f 70/42/6 74/48/18 73/47/18 69/41/6
f 76/51/13 72/52/12 71/50/12 75/49/13
f 74/48/18 78/76/19 77/75/19 73/74/18
f 80/55/15 76/56/16 75/54/15 79/53/14
f 79/59/1 77/60/1 78/58/1 80/57/1
f 45/62/17 44/63/17 43/61/17 47/11/17
f 51/64/17 45/62/17 47/11/17 48/12/17
f 55/65/17 51/64/17 48/12/17 53/18/17
f 59/66/17 55/65/17 53/18/17 57/24/17
f 63/67/17 59/66/17 57/24/17 61/30/17
f 67/68/17 63/67/17 61/30/17 65/74/17
f 71/69/17 67/68/17 65/74/17 69/42/17
f 75/70/17 71/69/17 69/42/17 73/48/17
f 79/75/17 75/70/17 73/48/17 77/71/17
f 83/3/1 84/4/1 82/2/1 81/1/1
f 81/76/20 86/48/21 85/78/21 83/77/20
f 88/7/4 82/8/5 84/6/3 87/5/2
f 86/80/21 90/12/6 89/10/6 85/79/21
f 92/15/7 88/16/4 87/14/2 91/13/7
f 90/12/6 94/82/6 93/81/6 89/10/6
f 96/21/8 92/22/7 91/20/7 95/19/8
f 94/18/6 98/24/6 97/23/6 93/17/6
f 100/27/9 96/28/8 95/26/8 99/25/9
f 98/24/6 102/30/6 101/29/6 97/23/6
f 104/33/10 100/34/9 99/32/9 103/31/10
f 102/30/6 106/36/6 105/35/6 101/29/6
f 108/39/11 104/40/10 103/38/10 107/37/11
f 106/36/6 110/42/6 109/41/6 105/35/6
f 112/45/12 108/46/11 107/44/11 111/43/12
f 110/42/6 9/48/6 7/47/6 109/41/6
f 114/51/13 112/52/12 111/50/12 113/49/13
f 116/55/15 114/56/16 113/54/15 115/53/14
f 115/59/1 3/60/1 1/58/1 116/57/1
f 87/62/17 84/83/17 83/61/17 85/11/17
f 91/64/17 87/62/17 85/11/17 89/12/17
f 95/65/17 91/64/17 89/12/17 93/82/17
f 99/66/17 95/84/17 93/18/17 97/24/17
f 103/67/17 99/66/17 97/24/17 101/30/17
f 107/68/17 103/67/17 101/30/17 105/74/17
f 111/69/17 107/68/17 105/74/17 109/42/17
f 113/70/17 111/69/17 109/42/17 7/48/17
f 115/75/17 113/70/17 7/48/17 3/71/17
f 119/3/1 120/4/1 118/2/1 117/1/1
f 122/7/4 118/8/5 120/6/3 121/5/2
f 125/11/6 126/12/6 124/10/6 123/9/6
f 128/15/7 122/16/4 121/14/2 127/13/7
f 126/12/6 130/18/6 129/17/6 124/10/6
f 132/21/8 128/22/7 127/20/7 131/19/8
f 130/18/6 134/24/6 133/23/6 129/17/6
f 136/27/9 132/28/8 131/26/8 135/25/9
f 134/24/6 138/30/6 137/29/6 133/23/6
f 140/33/10 136/34/9 135/32/9 139/31/10
f 138/30/6 142/74/6 141/73/6 137/29/6
f 144/39/11 140/40/10 139/38/10 143/37/11
f 142/74/6 146/42/6 145/41/6 141/73/6
f 148/45/12 144/46/11 143/44/11 147/43/12
f 146/42/6 49/48/6 47/47/6 145/41/6
f 150/51/13 148/52/12 147/50/12 149/49/13
f 152/55/15 150/56/16 149/54/15 151/53/14
f 151/59/1 43/60/1 41/58/1 152/57/1
f 121/62/17 120/63/17 119/61/17 123/11/17
f 127/64/17 121/62/17 123/11/17 124/12/17
f 131/65/17 127/64/17 124/12/17 129/18/17
f 135/66/17 131/65/17 129/18/17 133/24/17
f 139/67/17 135/66/17 133/24/17 137/30/17
f 143/68/17 139/67/17 137/30/17 141/74/17
f 147/69/17 143/68/17 141/74/17 145/42/17
f 149/70/17 147/69/17 145/42/17 47/48/17
f 151/75/17 149/70/17 47/48/17 43/71/17
f 155/3/1 156/4/1 154/2/1 153/1/1
f 158/7/4 154/8/5 156/6/3 157/5/2
f 161/11/6 162/12/6 160/10/6 159/9/6
f 164/15/7 158/16/4 157/14/2 163/13/7
f 162/12/6 166/18/6 165/17/6 160/10/6
f 168/21/8 164/22/7 163/20/7 167/19/8
f 166/82/6 170/24/6 169/23/6 165/81/6
f 172/27/9 168/28/8 167/26/8 171/25/9
f 170/24/6 174/30/6 173/29/6 169/23/6
f 176/33/10 172/34/9 171/32/9 175/31/10
f 174/30/6 178/74/6 177/73/6 173/29/6
f 180/39/11 176/40/10 175/38/10 179/37/11
f 178/74/6 182/42/6 181/41/6 177/73/6
f 184/45/12 180/46/11 179/44/11 183/43/12
f 182/42/6 125/48/6 123/47/6 181/41/6
f 186/51/13 184/52/12 183/50/12 185/49/13
f 188/55/15 186/56/16 185/54/15 187/53/14
f 187/59/1 119/60/1 117/58/1 188/57/1
f 157/62/17 156/63/17 155/61/17 159/11/17
f 163/64/17 157/62/17 159/11/17 160/12/17
f 167/65/17 163/64/17 160/12/17 165/18/17
f 171/66/17 167/65/17 165/18/17 169/24/17
f 175/67/17 171/66/17 169/24/17 173/30/17
f 179/68/17 175/67/17 173/30/17 177/74/17
f 183/69/17 179/68/17 177/74/17 181/42/17
f 185/70/17 183/69/17 181/42/17 123/48/17
f 187/75/17 185/70/17 123/48/17 119/71/17
f 191/3/1 192/4/1 190/2/1 189/1/1
f 194/7/4 190/8/5 192/6/3 193/5/2
f 197/11/6 198/12/6 196/10/6 195/9/6
f 200/15/7 194/16/4 193/14/2 199/13/7
f 198/12/6 202/18/6 201/17/6 196/10/6
f 204/21/8 200/22/7 199/20/7 203/19/8
f 202/82/6 206/24/6 205/23/6 201/81/6
f 208/27/9 204/28/8 203/26/8 207/25/9
f 206/24/6 210/30/6 209/29/6 205/23/6
f 212/33/10 208/34/9 207/32/9 211/31/10
f 210/30/6 214/74/6 213/73/6 209/29/6
f 216/39/11 212/40/10 211/38/10 215/37/11
f 214/74/6 218/42/6 217/41/6 213/73/6
f 220/45/12 216/46/11 215/44/11 219/43/12
f 218/42/6 161/48/6 159/47/6 217/41/6
f 222/51/13 220/52/12 219/50/12 221/49/13
f 224/55/15 222/56/16 221/54/15 223/53/14
f 223/59/1 155/60/1 153/58/1 224/57/1
f 193/62/17 192/63/17 191/61/17 195/11/17
f 199/64/17 193/62/17 195/11/17 196/12/17
f 203/65/17 199/64/17 196/12/17 201/18/17
f 207/66/17 203/84/17 201/82/17 205/24/17
f 211/67/17 207/66/17 205/24/17 209/30/17
f 215/68/17 211/67/17 209/30/17 213/74/17
f 219/69/17 215/68/17 213/74/17 217/42/17
f 221/70/17 219/69/17 217/42/17 159/48/17
f 223/75/17 221/70/17 159/48/17 155/71/17
f 227/3/1 228/4/1 226/2/1 225/1/1
f 230/7/4 226/8/5 228/6/3 229/5/2
f 233/11/6 234/12/6 232/10/6 231/9/6
f 236/15/7 230/16/4 229/14/2 235/13/7
f 234/12/6 238/18/6 237/17/6 232/10/6
f 240/21/8 236/22/7 235/20/7 239/19/8
f 238/18/6 242/24/6 241/23/6 237/17/6
f 244/27/9 240/28/8 239/26/8 243/25/9
f 242/24/6 246/30/6 245/29/6 241/23/6
f 248/33/10 244/34/9 243/32/9 247/31/10
f 246/30/6 250/36/6 249/35/6 245/29/6
f 252/39/11 248/40/10 247/38/10 251/37/11
f 250/74/6 254/42/6 253/41/6 249/73/6
f 256/45/12 252/46/11 251/44/11 255/43/12
f 254/42/6 197/48/6 195/47/6 253/41/6
f 258/51/13 256/52/12 255/50/12 257/49/13
f 260/55/15 258/56/16 257/54/15 259/53/14
f 259/59/1 191/60/1 189/58/1 260/57/1
f 229/62/17 228/83/17 227/61/17 231/11/17
f 235/64/17 229/62/17 231/11/17 232/12/17
f 239/65/17 235/64/17 232/12/17 237/82/17
f 243/66/17 239/84/17 237/18/17 241/24/17
f 247/67/17 243/66/17 241/24/17 245/30/17
f 251/68/17 247/67/17 245/30/17 249/36/17
f 255/69/17 251/68/17 249/74/17 253/42/17
f 257/70/17 255/69/17 253/42/17 195/48/17
f 259/75/17 257/70/17 195/48/17 191/71/17
f 40/3/1 262/4/1 261/2/1 39/1/1
f 264/7/4 261/8/5 262/6/3 263/5/2
f 34/11/6 266/12/6 265/10/6 33/9/6
f 268/15/7 264/16/4 263/14/2 267/13/7
f 266/12/6 270/18/6 269/17/6 265/10/6
f 272/21/8 268/22/7 267/20/7 271/19/8
f 270/18/6 274/24/6 273/23/6 269/17/6
f 276/27/9 272/28/8 271/26/8 275/25/9
f 274/24/6 278/30/6 277/29/6 273/23/6
f 280/33/10 276/34/9 275/32/9 279/31/10
f 278/30/6 282/36/6 281/35/6 277/29/6
f 284/39/11 280/40/10 279/38/10 283/37/11
f 282/36/6 286/42/6 285/41/6 281/35/6
f 288/45/12 284/46/11 283/44/11 287/43/12
f 286/42/6 233/48/6 231/47/6 285/41/6
f 290/51/13 288/52/12 287/50/12 289/49/13
f 292/55/15 290/56/16 289/54/15 291/53/14
f 291/59/1 227/60/1 225/58/1 292/57/1
f 263/62/17 262/83/17 40/61/17 33/11/17
f 267/64/17 263/62/17 33/11/17 265/12/17
f 271/65/17 267/64/17 265/12/17 269/82/17
f 275/66/17 271/84/17 269/18/17 273/24/17
f 279/67/17 275/66/17 273/24/17 277/30/17
f 283/68/17 279/67/17 277/30/17 281/74/17
f 287/69/17 283/68/17 281/74/17 285/42/17
f 289/70/17 287/69/17 285/42/17 231/48/17
f 291/75/17 289/70/17 231/48/17 227/71/17

