o machiolation_x1

g machiolation_x1
v 1.25 0 0
v 1.5 0 0
v 1.25 0.5 -0.25
v 1.5 0.5 -0.25
v 1.25 1 -0.25
v 1.25 1 0
v 1.515077 0.5868241 -0.25
v 1.515077 0.5868241 0
v 1.366978 1 -0.25
v 1.366978 1 0
v 1.558489 0.6631759 -0.25
v 1.558489 0.6631759 0
v 1.5 1 -0.25
v 1.5 1 0
v 1.625 0.7198464 -0.25
v 1.625 0.7198464 0
v 1.663176 1 -0.25
v 1.663176 1 0
v 1.706588 0.75 -0.25
v 1.706588 0.75 0
v 1.836824 1 -0.25
v 1.836824 1 0
v 1.793412 0.75 -0.25
v 1.793412 0.75 0
v 2 1 -0.25
v 2 1 0
v 1.875 0.7198463 -0.25
v 1.875 0.7198463 0
v 2.133022 1 -0.25
v 2.133022 1 0
v 1.941511 0.6631759 -0.25
v 1.941511 0.6631759 0
v 2.25 1 -0.25
v 2.25 1 0
v 1.984923 0.5868242 -0.25
v 1.984923 0.5868242 0
v 2.25 0.5 -0.25
v 2.25 0 0
v 2 0.5 -0.25
v 2 0 0

vt 1 -0.8944272
vt 0.75 -0.8944272
vt 1 -0.3354102
vt 0.75 -0.3354102
vt -0.25 -0.5
vt -0.25 0
vt 0 -1
vt 0 0
vt 0.25 -0.5328206
vt 0.25 -0.620944
vt 0 -0.5328206
vt 0 -1.113572
vt 1 -0.25
vt 0.8830222 -0.25
vt 1 0
vt 0.8830222 0
vt 0.25 -0.6345974
vt 0.25 -0.7224279
vt 0 -0.6345974
vt 0 -0.7224279
vt 0.75 -0.25
vt 0.75 0
vt -0.6574259 -0.25
vt -0.7448058 -0.25
vt -0.6574259 0
vt -0.7448058 0
vt 0.5868241 -0.25
vt 0.5868241 0
vt -0.5963808 -0.25
vt -0.6833627 -0.25
vt -0.5963808 0
vt -0.6833627 0
vt 0.4131759 -0.25
vt 0.4131759 0
vt -0.4565879 -0.25
vt -0.543412 -0.25
vt -0.4565879 0
vt -0.543412 0
vt 0.25 -0.25
vt 0.25 0
vt -0.2546257 -0.25
vt -0.3416076 -0.25
vt -0.2546257 0
vt -0.3416076 0
vt 0.1169778 -0.25
vt 0.1169778 0
vt -0.01636522 -0.25
vt -0.1037452 -0.25
vt -0.01636522 0
vt -0.1037452 0
vt 0 -0.25
vt -0.25 -0.2281574
vt -0.25 -0.1403268
vt 0 -0.2281574
vt 0 -0.1403268
vt 0.25 0
vt 0.25 -0.5
vt -0.1541445 -0.4419005
vt -0.1491981 -0.353916
vt 0.08201852 -0.9485829
vt 0.08696485 -0.3671927
vt 0.25 -0.8944272
vt 0 -0.8944272
vt 0.25 -0.3354102
vt 0 -0.3354102
vt -1 -1
vt -1 0
vt -0.75 -1
vt -0.7349231 -0.4131759
vt 1 -0.5
vt 0.7349231 -0.4131759
vt 0.75 -0.5
vt -0.8830222 0
vt -0.6915111 -0.3368241
vt 0.6915111 -0.3368241
vt -0.75 0
vt -0.625 -0.2801537
vt 0.625 -0.2801537
vt -0.5868241 -2.980232E-08
vt 0.543412 -0.25
vt -0.4131759 -2.980232E-08
vt 0.4565879 -0.25
vt -0.25 0
vt -0.375 -0.2801537
vt 0.375 -0.2801537
vt -0.1169778 0
vt -0.3084889 -0.3368241
vt 0.3084889 -0.3368241
vt -0.2650768 -0.4131759
vt 0.2650768 -0.4131759
vt -0.25 -1
vt 0 -0.5
vt 0.25 -0.5

vn 0 -0.4472136 -0.8944272
vn -1 0 0
vn -0.7071068 0.7071068 0
vn 0.9412563 -0.3376928 0
vn 0.9947881 -0.09866502 -0.02572719
vn 0.9527745 -0.3033946 -0.01313123
vn 0.9983538 -0.02565003 -0.05130007
vn 0 1 0
vn 0.7705734 -0.6373512 0
vn 0.5054014 -0.8628843 0
vn 0.1760844 -0.9843751 0
vn -0.1760846 -0.9843751 0
vn -0.5054014 -0.8628843 0
vn -0.7705732 -0.6373515 0
vn 0.7071068 0.7071068 0
vn -0.8693081 -0.4942707 0
vn 1 0 0
vn -0.9321935 -0.1618737 -0.3237473
vn -0.9659318 -0.09377872 -0.1618737
vn -0.9996701 -0.0256838 0
vn 0 0 1
vn 0 0 -1

usemtl castle_Stone
f 3/3/1 4/4/1 2/2/1 1/1/1
f 1/7/2 6/8/3 5/6/3 3/5/2
f 8/11/6 2/12/7 4/10/5 7/9/4
f 6/15/3 10/16/8 9/14/8 5/13/3
f 12/19/9 8/20/6 7/18/4 11/17/9
f 10/16/8 14/22/8 13/21/8 9/14/8
f 16/25/10 12/26/9 11/24/9 15/23/10
f 14/22/8 18/28/8 17/27/8 13/21/8
f 20/31/11 16/32/10 15/30/10 19/29/11
f 18/28/8 22/34/8 21/33/8 17/27/8
f 24/37/12 20/38/11 19/36/11 23/35/12
f 22/34/8 26/40/8 25/39/8 21/33/8
f 28/43/13 24/44/12 23/42/12 27/41/13
f 26/40/8 30/46/8 29/45/8 25/39/8
f 32/49/14 28/50/13 27/48/13 31/47/14
f 30/46/8 34/8/15 33/51/15 29/45/8
f 36/54/16 32/55/14 31/53/14 35/52/16
f 34/8/15 38/7/17 37/57/17 33/56/15
f 40/60/19 36/61/20 35/59/19 39/58/18
f 39/64/1 37/65/1 38/63/1 40/62/1
f 2/68/21 8/69/21 6/67/21 1/66/21
f 7/71/22 4/72/22 3/70/22 5/15/22
f 8/69/21 12/74/21 10/73/21 6/67/21
f 11/75/22 7/71/22 5/15/22 9/16/22
f 12/74/21 16/77/21 14/76/21 10/73/21
f 15/78/22 11/75/22 9/16/22 13/22/22
f 16/77/21 20/36/21 18/79/21 14/76/21
f 19/80/22 15/78/22 13/22/22 17/28/22
f 20/36/21 24/35/21 22/81/21 18/79/21
f 23/82/22 19/80/22 17/28/22 21/34/22
f 24/35/21 28/84/21 26/83/21 22/81/21
f 27/85/22 23/82/22 21/34/22 25/40/22
f 28/84/21 32/87/21 30/86/21 26/83/21
f 31/88/22 27/85/22 25/40/22 29/46/22
f 32/87/21 36/89/21 34/8/21 30/86/21
f 35/90/22 31/88/22 29/46/22 33/8/22
f 36/89/21 40/91/21 38/7/21 34/8/21
f 39/93/22 35/90/22 33/8/22 37/92/22

