# ProBuilder 5.1.0
# https://unity3d.com/unity/features/worldbuilding/probuilder
# 2025-07-08 11:41:35 AM

mtllib ./village-house.mtl
o village-house

g village-house
v -11.9375 1 -4.5
v -12 1 -4.5
v -11.9375 2.5 -4.5
v -12 2.5 -4.5
v -12 1 -4.625
v -12 1 -5.375
v -12 2.375 -4.625
v -12 2.375 -5.375
v -12 1 -5.5
v -11.9375 1 -5.5
v -12 2.5 -5.5
v -11.9375 2.5 -5.5
v -11.9875 1 -5.375
v -11.9875 1 -4.625
v -11.9875 2.375 -5.375
v -11.9875 2.375 -4.625
v -11.9375 1 -4.625
v -11.9375 2.375 -4.625
v -11.9375 2.375 -5.375
v -11.9375 1 -5.375
v -10 0 0
v -12 0 0
v -10 1 0
v -12 1 0
v -12 0 -4
v -12 1 -4
v -10 0 -4
v -10 1 -4
v -14 0 0
v -14 1 0
v -14 0 -6
v -14 1 -6
v -12 0 -6
v -12 1 -6
v -10 3 0
v -14 3 0
v -14 1 -4
v -14 3 -4
v -10 3 -4
v -12 3 -4
v -14 3 -6
v -12 3 -6
v -10 0 -5.5
v -10 0 -4.5
v -10 0.125 -5.5
v -10 0.125 -4.5
v -10.25 0.125 -5.5
v -10.25 0.125 -4.5
v -10.25 0.25 -5.5
v -10.25 0.25 -4.5
v -10.5 0.25 -5.5
v -10.5 0.25 -4.5
v -10.5 0.375 -5.5
v -10.5 0.375 -4.5
v -10.75 0.375 -5.5
v -10.75 0.375 -4.5
v -10.75 0.5 -5.5
v -10.75 0.5 -4.5
v -11 0.5 -5.5
v -11 0.5 -4.5
v -11 0.625 -5.5
v -11 0.625 -4.5
v -11.25 0.625 -5.5
v -11.25 0.625 -4.5
v -11.25 0.75 -5.5
v -11.25 0.75 -4.5
v -11.5 0.75 -5.5
v -11.5 0.75 -4.5
v -11.5 0.875 -5.5
v -11.5 0.875 -4.5
v -11.75 0.875 -5.5
v -11.75 0.875 -4.5
v -11.75 1 -5.5
v -11.75 1 -4.5
v -10.25 0 -4.5
v -10.5 0 -4.5
v -10.75 0 -4.5
v -11 0 -4.5
v -11.25 0 -4.5
v -11.5 0 -4.5
v -11.75 0 -4.5
v -12 0 -4.5
v -10.25 0 -5.5
v -10.5 0 -5.5
v -10.75 0 -5.5
v -11 0 -5.5
v -11.25 0 -5.5
v -11.5 0 -5.5
v -11.75 0 -5.5
v -12 0 -5.5
v -9.5 3 0.5
v -14.5 3 0.5
v -9.5 6 0.5
v -14.5 6 0.5
v -14.5 3 -4.5
v -14.5 6 -4.5
v -9.5 3 -4.5
v -9.5 6 -4.5
v -9.5 12 -2.25
v -9.5 12 -1.75
v -9.5 6.087781 0.7340827
v -14.5 6.087781 0.7340832
v -9.5 12.25 -1.57675
v -14.5 12.25 -1.576749
v -14.5 6 -4.5
v -14.5 12 -1.749999
v -14.5 12 -2.249999
v -14.5 6.087781 -4.734082
v -9.5 6.087781 -4.734082
v -14.5 12.25 -2.423249
v -9.5 12.25 -2.42325
v -15 12 -2.249999
v -15 6 -4.5
v -15 12.25 -2.423249
v -15 6.087781 -4.734082
v -9 6 -4.5
v -9 12 -2.25
v -9 6.087781 -4.734082
v -9 12.25 -2.42325
v -9 12 -1.75
v -9 12.25 -1.57675
v -15 12 -1.749999
v -15 12.25 -1.576749
v -9 6 0.5000005
v -9 6.087781 0.7340827
v -15 6 0.500001
v -15 6.087781 0.7340832
v -14.73408 6.087781 -4.5
v -14.73408 6.087781 -6.5
v -13.42325 9.25 -3.375
v -13.42325 9.25 -6.5
v -14.5 6 -6.5
v -11.48408 6 -6.5
v -13.25 9 -6.5
v -12.75 9 -6.5
v -11.25 6.087781 -6.5
v -11.25 6.087781 -4.5
v -12.57675 9.25 -6.5
v -12.57675 9.25 -3.375
v -11.48408 6 -4.5
v -12.75 9 -7
v -11.48408 6 -7
v -12.57675 9.25 -7
v -11.25 6.087781 -7
v -13.25 9 -7
v -13.42325 9.25 -7
v -14.5 6 -7
v -14.73408 6.087781 -7
v -11.5 3 -4.5
v -11.5 6 -4.5
v -14.5 3 -6.5
v -11.5 3 -6.5
v -11.5 6 -6.5
v -9.875 3.875 -4.75
v -9.875 3.875 -4.5
v -9.875 5 -4.75
v -9.875 5.5 -4.5
v -10 4 -4.5
v -11 4 -4.5
v -10 5.5 -4.5
v -11 5.5 -4.5
v -11.125 3.875 -4.5
v -11.125 3.875 -4.75
v -11.125 5.5 -4.5
v -11.125 5 -4.75
v -11 4 -4.75
v -10 4 -4.75
v -11 5 -4.75
v -10 5 -4.75
v -10 5.055902 -4.861804
v -10 5.555902 -4.611804
v -11 5.055902 -4.861804
v -11 5.555902 -4.611804
v -9.875 5.555902 -4.611804
v -9.875 5.055902 -4.861804
v -11.125 5.055902 -4.861804
v -11.125 5.555902 -4.611804
v -11.625 3.875 -6.75
v -11.625 3.875 -6.5
v -11.625 5 -6.75
v -11.625 5.5 -6.5
v -11.75 4 -6.5
v -12.75 4 -6.5
v -11.75 5.5 -6.5
v -12.75 5.5 -6.5
v -12.875 3.875 -6.5
v -12.875 3.875 -6.75
v -12.875 5.5 -6.5
v -12.875 5 -6.75
v -12.75 4 -6.75
v -11.75 4 -6.75
v -12.75 5 -6.75
v -11.75 5 -6.75
v -11.75 5.055902 -6.861804
v -11.75 5.555902 -6.611804
v -12.75 5.055902 -6.861804
v -12.75 5.555902 -6.611804
v -11.625 5.555902 -6.611804
v -11.625 5.055902 -6.861804
v -12.875 5.055902 -6.861804
v -12.875 5.555902 -6.611804
v -13.125 3.875 -6.75
v -13.125 3.875 -6.5
v -13.125 5 -6.75
v -13.125 5.5 -6.5
v -13.25 4 -6.5
v -14.25 4 -6.5
v -13.25 5.5 -6.5
v -14.25 5.5 -6.5
v -14.375 3.875 -6.5
v -14.375 3.875 -6.75
v -14.375 5.5 -6.5
v -14.375 5 -6.75
v -14.25 4 -6.75
v -13.25 4 -6.75
v -14.25 5 -6.75
v -13.25 5 -6.75
v -13.25 5.055902 -6.861804
v -13.25 5.555902 -6.611804
v -14.25 5.055902 -6.861804
v -14.25 5.555902 -6.611804
v -13.125 5.555902 -6.611804
v -13.125 5.055902 -6.861804
v -14.375 5.055902 -6.861804
v -14.375 5.555902 -6.611804
v -9.25 3.875 -2.875
v -9.5 3.875 -2.875
v -9.25 5 -2.875
v -9.5 5.5 -2.875
v -9.5 4 -3
v -9.5 4 -4
v -9.5 5.5 -3
v -9.5 5.5 -4
v -9.5 3.875 -4.125
v -9.25 3.875 -4.125
v -9.5 5.5 -4.125
v -9.25 5 -4.125
v -9.25 4 -4
v -9.25 4 -3
v -9.25 5 -4
v -9.25 5 -3
v -9.138197 5.055902 -3
v -9.388197 5.555902 -3
v -9.138196 5.055902 -4
v -9.388196 5.555902 -4
v -9.388197 5.555902 -2.875
v -9.138197 5.055902 -2.875
v -9.138197 5.055902 -4.125
v -9.388197 5.555902 -4.125
v -15 3.875 -2.625
v -14.75 3.875 -2.625
v -15 5 -2.625
v -14.75 5.5 -2.625
v -14.75 4 -2.5
v -14.75 4 -1.5
v -14.75 5.5 -2.5
v -14.75 5.5 -1.5
v -14.75 3.875 -1.375
v -15 3.875 -1.375
v -14.75 5.5 -1.375
v -15 5 -1.375
v -15 4 -1.5
v -15 4 -2.5
v -15 5 -1.5
v -15 5 -2.5
v -15.1118 5.055902 -2.5
v -14.8618 5.555902 -2.5
v -15.1118 5.055902 -1.5
v -14.8618 5.555902 -1.5
v -14.8618 5.555902 -2.625
v -15.1118 5.055902 -2.625
v -15.1118 5.055902 -1.375
v -14.8618 5.555902 -1.375
v -15 3.875 -4.125
v -14.75 3.875 -4.125
v -15 5 -4.125
v -14.75 5.5 -4.125
v -14.75 4 -4
v -14.75 4 -3
v -14.75 5.5 -4
v -14.75 5.5 -3
v -14.75 3.875 -2.875
v -15 3.875 -2.875
v -14.75 5.5 -2.875
v -15 5 -2.875
v -15 4 -3
v -15 4 -4
v -15 5 -3
v -15 5 -4
v -15.1118 5.055902 -4
v -14.8618 5.555902 -4
v -15.1118 5.055902 -3
v -14.8618 5.555902 -3
v -14.8618 5.555902 -4.125
v -15.1118 5.055902 -4.125
v -15.1118 5.055902 -2.875
v -14.8618 5.555902 -2.875
v -9.25 3.875 0.125
v -9.5 3.875 0.125
v -9.25 5 0.125
v -9.5 5.5 0.125
v -9.5 4 0
v -9.5 4 -1
v -9.5 5.5 0
v -9.5 5.5 -1
v -9.5 3.875 -1.125
v -9.25 3.875 -1.125
v -9.5 5.5 -1.125
v -9.25 5 -1.125
v -9.25 4 -1
v -9.25 4 0
v -9.25 5 -1
v -9.25 5 0
v -9.138197 5.055902 0
v -9.388197 5.555902 0
v -9.138196 5.055902 -1
v -9.388196 5.555902 -1
v -9.388197 5.555902 0.125
v -9.138197 5.055902 0.125
v -9.138197 5.055902 -1.125
v -9.388197 5.555902 -1.125
v -15 3.875 -1.125
v -14.75 3.875 -1.125
v -15 5 -1.125
v -14.75 5.5 -1.125
v -14.75 4 -1
v -14.75 4 0
v -14.75 5.5 -1
v -14.75 5.5 0
v -14.75 3.875 0.125
v -15 3.875 0.125
v -14.75 5.5 0.125
v -15 5 0.125
v -15 4 0
v -15 4 -1
v -15 5 0
v -15 5 -1
v -15.1118 5.055902 -1
v -14.8618 5.555902 -1
v -15.1118 5.055902 0
v -14.8618 5.555902 0
v -14.8618 5.555902 -1.125
v -15.1118 5.055902 -1.125
v -15.1118 5.055902 0.1250005
v -14.8618 5.555902 0.1250005
v -11.125 3.875 0.75
v -11.125 3.875 0.5
v -11.125 5 0.75
v -11.125 5.5 0.5
v -11 4 0.5
v -10 4 0.5
v -11 5.5 0.5
v -10 5.5 0.5000005
v -9.875 3.875 0.5
v -9.875 3.875 0.7500005
v -9.875 5.5 0.5
v -9.875 5 0.7500005
v -10 4 0.7500005
v -11 4 0.75
v -10 5 0.7500005
v -11 5 0.75
v -11 5.055902 0.8618035
v -11 5.555902 0.6118035
v -10 5.055902 0.861804
v -10 5.555902 0.611804
v -11.125 5.555902 0.6118035
v -11.125 5.055902 0.8618035
v -9.875 5.055902 0.8618035
v -9.875 5.555902 0.6118035
v -12.625 3.875 0.75
v -12.625 3.875 0.5
v -12.625 5 0.75
v -12.625 5.5 0.5
v -12.5 4 0.5
v -11.5 4 0.5
v -12.5 5.5 0.5
v -11.5 5.5 0.5000005
v -11.375 3.875 0.5
v -11.375 3.875 0.7500005
v -11.375 5.5 0.5
v -11.375 5 0.7500005
v -11.5 4 0.7500005
v -12.5 4 0.75
v -11.5 5 0.7500005
v -12.5 5 0.75
v -12.5 5.055902 0.8618035
v -12.5 5.555902 0.6118035
v -11.5 5.055902 0.861804
v -11.5 5.555902 0.611804
v -12.625 5.555902 0.6118035
v -12.625 5.055902 0.8618035
v -11.375 5.055902 0.8618035
v -11.375 5.555902 0.6118035
v -14.125 3.875 0.75
v -14.125 3.875 0.5
v -14.125 5 0.75
v -14.125 5.5 0.5
v -14 4 0.5
v -13 4 0.5
v -14 5.5 0.5
v -13 5.5 0.5000005
v -12.875 3.875 0.5
v -12.875 3.875 0.7500005
v -12.875 5.5 0.5
v -12.875 5 0.7500005
v -13 4 0.7500005
v -14 4 0.75
v -13 5 0.7500005
v -14 5 0.75
v -14 5.055902 0.8618035
v -14 5.555902 0.6118035
v -13 5.055902 0.861804
v -13 5.555902 0.611804
v -14.125 5.555902 0.6118035
v -14.125 5.055902 0.8618035
v -12.875 5.055902 0.8618035
v -12.875 5.555902 0.6118035
v -9.25 7.722049 -1.375
v -9.5 7.722049 -1.375
v -9.25 8.847049 -1.375
v -9.5 9.347049 -1.375
v -9.5 7.847049 -1.5
v -9.5 7.847049 -2.5
v -9.5 9.347049 -1.5
v -9.5 9.347049 -2.5
v -9.5 7.722049 -2.625
v -9.25 7.722049 -2.625
v -9.5 9.347049 -2.625
v -9.25 8.847049 -2.625
v -9.25 7.847049 -2.5
v -9.25 7.847049 -1.5
v -9.25 8.847049 -2.5
v -9.25 8.847049 -1.5
v -9.138197 8.90295 -1.5
v -9.388197 9.40295 -1.5
v -9.138196 8.90295 -2.5
v -9.388196 9.40295 -2.5
v -9.388197 9.40295 -1.375
v -9.138197 8.90295 -1.375
v -9.138197 8.90295 -2.625
v -9.388197 9.40295 -2.625
v -14.63214 7.722049 -2.624998
v -14.38214 7.722049 -2.625
v -14.63214 8.847049 -2.624998
v -14.38214 9.347049 -2.625
v -14.38214 7.847049 -2.5
v -14.38213 7.847049 -1.5
v -14.38214 9.347049 -2.5
v -14.38213 9.347049 -1.499999
v -14.38213 7.722049 -1.375
v -14.63213 7.722049 -1.374998
v -14.38213 9.347049 -1.374999
v -14.63213 8.847049 -1.374998
v -14.63213 7.847049 -1.499998
v -14.63214 7.847049 -2.499998
v -14.63213 8.847049 -1.499998
v -14.63214 8.847049 -2.499998
v -14.74394 8.90295 -2.499997
v -14.49394 9.40295 -2.499999
v -14.74393 8.90295 -1.499997
v -14.49393 9.40295 -1.499999
v -14.49394 9.40295 -2.624999
v -14.74394 8.90295 -2.624997
v -14.74393 8.90295 -1.374997
v -14.49393 9.40295 -1.374999
v -11.75 0 -4
v -10 0.125 -4
v -11.75 1 -4
v -11.75 0 -6
v -10 0 -6
v -11.75 1 -6
v -10 0.125 -6
v -14.625 3 0.625
v -9.375 3 0.625
v -14.625 2.75 0.625
v -9.375 2.75 0.625
v -9.375 3 -4.625
v -9.375 2.75 -4.625
v -14.625 3 -4.625
v -14.625 2.75 -4.625
v -14.625 3.75 0.625
v -9.375 3.75 0.625
v -14.625 3.5 0.625
v -9.375 3.5 0.625
v -9.375 3.75 -4.625
v -9.375 3.5 -4.625
v -14.625 3.75 -4.625
v -14.625 3.5 -4.625
v -14.625 6 0.625
v -9.375 6 0.625
v -14.625 5.75 0.625
v -9.375 5.75 0.625
v -9.375 6 -4.625
v -9.375 5.75 -4.625
v -14.625 6 -4.625
v -14.625 5.75 -4.625
v -11.375 3 -4.625
v -11.375 2.75 -4.625
v -11.375 3 -6.625
v -11.375 2.75 -6.625
v -14.625 3 -6.625
v -14.625 2.75 -6.625
v -11.375 3.75 -4.625
v -11.375 3.5 -4.625
v -11.375 3.75 -6.625
v -11.375 3.5 -6.625
v -14.625 3.75 -6.625
v -14.625 3.5 -6.625
v -11.375 6 -4.625
v -11.375 5.75 -4.625
v -11.375 6 -6.625
v -11.375 5.75 -6.625
v -14.625 6 -6.625
v -14.625 5.75 -6.625
v -9.375 3 -4.5
v -9.375 6 -4.5
v -9.5 3 -4.625
v -9.5 6 -4.625
v -10 2.3125 -3.5
v -10 2.375 -3.5
v -9.375 2.75 -3.5
v -9.5 2.75 -3.5
v -10 2.375 -3.625
v -9.5 2.75 -3.625
v -10 2.3125 -3.625
v -9.375 2.75 -3.625
v -13.99999 2.3125 -0.5000024
v -13.99999 2.375 -0.5000024
v -14.62499 2.75 -0.4999986
v -14.49999 2.75 -0.4999995
v -13.99999 2.375 -0.3750024
v -14.49999 2.75 -0.3749995
v -13.99999 2.3125 -0.3750024
v -14.62499 2.75 -0.3749986
v -10 2.3125 -2.375
v -10 2.375 -2.375
v -9.375 2.75 -2.375
v -9.5 2.75 -2.375
v -10 2.375 -2.5
v -9.5 2.75 -2.5
v -10 2.3125 -2.5
v -9.375 2.75 -2.5
v -14 2.3125 -1.625003
v -14 2.375 -1.625003
v -14.625 2.75 -1.624999
v -14.5 2.75 -1.625
v -14 2.375 -1.500003
v -14.5 2.75 -1.5
v -14 2.3125 -1.500003
v -14.625 2.75 -1.499999
v -10 2.3125 -1.375
v -10 2.375 -1.375
v -9.375 2.75 -1.375
v -9.5 2.75 -1.375
v -10 2.375 -1.5
v -9.5 2.75 -1.5
v -10 2.3125 -1.5
v -9.375 2.75 -1.5
v -14 2.3125 -2.625002
v -14 2.375 -2.625002
v -14.625 2.75 -2.624999
v -14.5 2.75 -2.624999
v -14 2.375 -2.500002
v -14.5 2.75 -2.499999
v -14 2.3125 -2.500002
v -14.625 2.75 -2.499999
v -10 2.3125 -0.375
v -10 2.375 -0.375
v -9.375 2.75 -0.375
v -9.5 2.75 -0.375
v -10 2.375 -0.5
v -9.5 2.75 -0.5
v -10 2.3125 -0.5
v -9.375 2.75 -0.5
v -14.00001 2.3125 -3.625002
v -14.00001 2.375 -3.625002
v -14.62501 2.75 -3.624999
v -14.50001 2.75 -3.624999
v -14.00001 2.375 -3.500002
v -14.50001 2.75 -3.499999
v -14.00001 2.3125 -3.500002
v -14.62501 2.75 -3.499999
v -14.00001 2.3125 -4.562502
v -14.00001 2.375 -4.562502
v -14.62501 2.75 -4.562498
v -14.50001 2.75 -4.562499
v -14.00001 2.375 -4.437502
v -14.50001 2.75 -4.437499
v -14.00001 2.3125 -4.437502
v -14.62501 2.75 -4.437498
v -14.00001 2.3125 -5.312502
v -14.00001 2.375 -5.312502
v -14.62501 2.75 -5.312498
v -14.50001 2.75 -5.312499
v -14.00001 2.375 -5.187502
v -14.50001 2.75 -5.187499
v -14.00001 2.3125 -5.187502
v -14.62501 2.75 -5.187498
v -13.6875 2.3125 -6
v -13.6875 2.375 -6
v -13.6875 2.75 -6.625
v -13.6875 2.75 -6.5
v -13.8125 2.375 -6
v -13.8125 2.75 -6.5
v -13.8125 2.3125 -6
v -13.8125 2.75 -6.625
v -12.875 2.3125 -6
v -12.875 2.375 -6
v -12.875 2.75 -6.625
v -12.875 2.75 -6.5
v -13 2.375 -6
v -13 2.75 -6.5
v -13 2.3125 -6
v -13 2.75 -6.625
v -12.125 2.3125 -6
v -12.125 2.375 -6
v -12.125 2.75 -6.625
v -12.125 2.75 -6.5
v -12.25 2.375 -6
v -12.25 2.75 -6.5
v -12.25 2.3125 -6
v -12.25 2.75 -6.625
v -9.5 3 0.625
v -9.5 6 0.625
v -9.375 3 0.5
v -9.375 6 0.5
v -14.5 3 0.625
v -14.5 6 0.625
v -14.625 3 0.5
v -14.625 6 0.5
v -14.625 3 -6.5
v -14.625 6 -6.5
v -14.5 3 -6.625
v -14.5 6 -6.625
v -11.375 3 -6.5
v -11.375 6 -6.5
v -11.5 3 -6.625
v -11.5 6 -6.625
v -11.375 3.75 -6.375
v -11.5 3.75 -6.375
v -11.5 5.75 -4.625
v -11.5 3.75 -6.5
v -11.5 5.75 -4.75
v -11.375 3.75 -6.5
v -11.375 5.75 -4.75
v -13.1875 6 -6.5
v -13.1875 6 -6.625
v -14 7.25 -6.5
v -14 7.25 -6.625
v -13.0625 6 -6.625
v -13.875 7.25 -6.625
v -13.0625 6 -6.5
v -13.875 7.25 -6.5
v -9.500199 6 -2.187433
v -9.375199 6 -2.187567
v -9.501069 7.25 -2.999933
v -9.376069 7.25 -3.000067
v -9.375066 6 -2.062567
v -9.375936 7.25 -2.875066
v -9.500066 6 -2.062433
v -9.500936 7.25 -2.874933
v -14.38193 6 -1.812567
v -14.50693 6 -1.812433
v -14.38106 7.25 -1.000067
v -14.50606 7.25 -0.9999332
v -14.50707 6 -1.937433
v -14.5062 7.25 -1.124933
v -14.38207 6 -1.937567
v -14.3812 7.25 -1.125068
v -14.5 3.75 -6.375
v -14.625 3.75 -6.375
v -14.5 5.75 -4.6875
v -14.625 5.75 -4.6875
v -14.625 3.75 -6.5
v -14.625 5.75 -4.8125
v -14.5 3.75 -6.5
v -14.5 5.75 -4.8125
v -14.625 3.75 -4.875
v -14.5 3.75 -4.875
v -14.625 5.75 -6.5625
v -14.5 5.75 -6.5625
v -14.5 3.75 -4.75
v -14.5 5.75 -6.4375
v -14.625 3.75 -4.75
v -14.625 5.75 -6.4375
v -12.8125 6 -6.625
v -12.8125 6 -6.5
v -12 7.25 -6.625
v -12 7.25 -6.5
v -12.9375 6 -6.5
v -12.125 7.25 -6.5
v -12.9375 6 -6.625
v -12.125 7.25 -6.625
v -9.374801 6 -1.812567
v -9.499801 6 -1.812433
v -9.373931 7.25 -1.000067
v -9.498931 7.25 -0.9999342
v -9.499934 6 -1.937433
v -9.499064 7.25 -1.124934
v -9.374934 6 -1.937567
v -9.374064 7.25 -1.125068
v -14.50733 6 -2.187432
v -14.38233 6 -2.187566
v -14.50821 7.25 -2.999932
v -14.38321 7.25 -3.000066
v -14.3822 6 -2.062566
v -14.38307 7.25 -2.875066
v -14.5072 6 -2.062432
v -14.50807 7.25 -2.874931
v -12.9375 9 -6.5
v -13.0625 9 -6.5
v -13.0625 9 -6.625
v -12.9375 9 -6.625
v -9.499932 7.25 -1.937433
v -9.500066 7.25 -2.062433
v -9.375066 7.25 -2.062567
v -9.374932 7.25 -1.937567
v -14.3822 7.25 -2.062567
v -14.38207 7.25 -1.937567
v -14.50707 7.25 -1.937433
v -14.5072 7.25 -2.062433
v -12.9375 3.75 -6.5
v -13.0625 3.75 -6.5
v -12.9375 5.75 -6.5
v -13.0625 5.75 -6.5
v -13.0625 3.75 -6.625
v -13.0625 5.75 -6.625
v -12.9375 3.75 -6.625
v -12.9375 5.75 -6.625
v -9.375 3.75 -1.9375
v -9.5 3.75 -1.9375
v -9.375 5.75 -1.9375
v -9.5 5.75 -1.9375
v -9.5 3.75 -2.0625
v -9.5 5.75 -2.0625
v -9.375 3.75 -2.0625
v -9.375 5.75 -2.0625
v -9.375 10 -1.9375
v -9.5 10 -1.9375
v -9.375 12 -1.9375
v -9.5 12 -1.9375
v -9.5 10 -2.0625
v -9.5 12 -2.0625
v -9.375 10 -2.0625
v -9.375 12 -2.0625
v -14.50714 10 -2.062499
v -14.38214 10 -2.0625
v -14.50714 12 -2.062499
v -14.38214 12 -2.0625
v -14.38213 10 -1.9375
v -14.38213 12 -1.9375
v -14.50713 10 -1.937499
v -14.50713 12 -1.937499
v -9.375 9.875 -3.0625
v -9.5 9.875 -3.0625
v -9.375 9.875 -0.9375
v -9.5 9.875 -0.9375
v -9.5 10 -3.0625
v -9.5 10 -0.9375
v -9.375 10 -3.0625
v -9.375 10 -0.9375
v -14.50713 9.875 -0.937499
v -14.38213 9.875 -0.9375
v -14.50714 9.875 -3.062499
v -14.38214 9.875 -3.0625
v -14.38213 10 -0.9374995
v -14.38214 10 -3.0625
v -14.50713 10 -0.937499
v -14.50714 10 -3.062499
v -9.375 7.25 -4.0625
v -9.5 7.25 -4.0625
v -9.375 7.25 0.06250095
v -9.5 7.25 0.06250095
v -9.5 7.375 -4.0625
v -9.5 7.375 0.06250095
v -9.375 7.375 -4.0625
v -9.375 7.375 0.06250095
v -14.50712 7.25 0.06250143
v -14.38212 7.25 0.06250048
v -14.50715 7.25 -4.0625
v -14.38215 7.25 -4.0625
v -14.38212 7.375 0.06250048
v -14.38215 7.375 -4.0625
v -14.50712 7.375 0.06250143
v -14.50715 7.375 -4.0625
v -14.5 3.75 -4.625
v -14.5 5.75 -4.625
v -14.625 5.75 -4.75
v -14.5 5.75 -4.75
v -11.375 3 -4.5
v -11.375 6 -4.5
v -11.5 3 -4.625
v -11.5 6 -4.625
v -12 7.375 -6.5
v -14 7.375 -6.5
v -14 7.375 -6.625
v -12 7.375 -6.625

vt 0.0625 1.192093E-07
vt 0 1.192093E-07
vt 0.0625 1.5
vt 0 1.5
vt 0.875 0
vt 0.125 0
vt 0.875 1.375
vt 0.125 1.375
vt -0.0625 0
vt -0.0625 1.5
vt -0.125 0
vt -0.875 0
vt -0.125 1.375
vt -0.875 1.375
vt 0.06249999 1.25
vt -7.450581E-09 1.25
vt 0.06250007 2.25
vt 7.450581E-08 2.25
vt 0.0625 0.8750001
vt 0 0.8750001
vt 0.0625 1
vt 0 1
vt -0.8749999 1.375
vt -0.8749999 1.192093E-07
vt -0.9999999 1.5
vt -0.9999999 1.192093E-07
vt 0.8749999 1.192093E-07
vt 0.8749999 1.375
vt 0.9999999 1.192093E-07
vt 0.9999999 1.5
vt -0.8124999 2.75
vt -0.06249991 2.75
vt -0.9374999 2.625
vt 0.06250003 2.625
vt 0.1875 2.75
vt 0.9375 2.75
vt 1.0625 2.625
vt 0 0.125
vt 0.0625 0.125
vt 0.0625 1.375
vt 0.0125 1.375
vt 0.0125 0
vt -0.0625 1.375
vt -0.0125 0
vt -0.0125 1.375
vt 0.0125 0.875
vt 0.0125 0.125
vt -2 0
vt -2 1
vt -4 0
vt -4 1
vt 2 0
vt 2 1
vt 4 0
vt 4 1
vt 0 -4
vt 2 -4
vt -2 -4
vt -6 0
vt -6 1
vt 6 0
vt 6 1
vt -2 -6
vt 0 -6
vt 2 -6
vt 0 2
vt -4 2
vt 4 2
vt 4 -4
vt -4 -4
vt 2 2
vt -2 2
vt -0.5 0
vt -1.5 0
vt -0.5 0.125
vt -1.5 0.125
vt -0.5 0.25
vt -1.5 0.25
vt -0.5 0.5
vt -1.5 0.5
vt -0.5 0.375
vt -1.5 0.375
vt -0.5 0.75
vt -1.5 0.75
vt -0.5 1
vt -1.5 1
vt -0.5 0.625
vt -1.5 0.625
vt -0.5 1.25
vt -1.5 1.25
vt -0.5 1.5
vt -1.5 1.5
vt -0.5 0.875
vt -1.5 0.875
vt -0.5 1.75
vt -1.5 1.75
vt -0.5 2
vt -1.5 2
vt -0.25 0
vt -0.25 0.125
vt -0.25 0.25
vt -0.75 0
vt -0.75 0.375
vt -1 0
vt -1 0.5
vt -0.75 0.5
vt -1.25 0
vt -1.25 0.625
vt -1 0.625
vt -1.25 0.75
vt -1.75 0
vt -1.75 0.875
vt -1.75 1
vt 0.25 0
vt 0.25 0.125
vt 0.5 0
vt 0.5 0.25
vt 0.25 0.25
vt 0.75 0
vt 0.75 0.375
vt 0.5 0.375
vt 1 0
vt 1 0.5
vt 0.75 0.5
vt 1.25 0
vt 1.25 0.625
vt 1 0.625
vt 1.5 0
vt 1.5 0.75
vt 1.25 0.75
vt 1.75 0
vt 1.75 0.875
vt 1.5 0.875
vt 1.75 1
vt 1.5 1
vt 0.5 1
vt -5 0
vt 0 3
vt -5 3
vt 5 0
vt 5 3
vt 0 -5
vt 5 -5
vt -5 -5
vt -2.25 6
vt -2.75 6
vt 0 -1.755617
vt -5 -1.755617
vt 0 4.825636
vt -5 4.825636
vt 2.75 6
vt 2.25 6
vt 5 6.581253
vt 0 6.581253
vt 2.07675 0
vt 2.92325 0
vt 2.07675 -5
vt 2.92325 -5
vt 0.2499994 -5
vt 2.07675 6.25
vt -0.2340821 0.08778095
vt 0.2340821 0.08778095
vt -2.07675 6.25
vt -2.92325 6.25
vt 2.92325 6.25
vt -4.681645 0
vt -4.681645 -5
vt -4.931644 0
vt -4.931645 -5
vt -5.234082 0.08778095
vt 5.234082 0.08778095
vt 0 4.652386
vt -0.5 4.652386
vt -0.5 -1.755617
vt 2.92325 0.5
vt 2.07675 0.5
vt -4.681646 0.5
vt -4.931646 0.5
vt 0.5 -1.755617
vt 0.5 4.825636
vt -2.25 0
vt -2.75 0
vt -2.25 0.5
vt -2.75 0.5
vt -0.5 6.581253
vt 0 6.408003
vt 0.5 6.408003
vt 0.25 0.5
vt 0 0.5
vt 5 -1.755617
vt 5 4.652386
vt 5.5 -1.755617
vt 5.5 4.652386
vt -4.931646 -5.5
vt -4.681646 -5.5
vt 0.25 -5
vt 0 -5.5
vt 0.25 -5.5
vt -5.5 4.825636
vt -5.5 -1.755617
vt -2.75 -5
vt -2.25 -5
vt -2.75 -5.5
vt -2.25 -5.5
vt 2.07675 -5.5
vt 2.92325 -5.5
vt -5 6.408003
vt -5.5 6.408003
vt -5.5 0
vt 5.5 0
vt 5.5 6.581253
vt -1.5 -1.540277
vt -3.5 -1.540277
vt -0.375 1.882867
vt -3.5 1.882867
vt 0.9840822 0
vt 2.75 3
vt 2.25 3
vt 3.5 0.3711128
vt 1.5 0.3711128
vt 3.5 3.800383
vt 0.375 3.800383
vt 2.07675 -0.375
vt 2.92325 -0.375
vt 2.07675 -3.5
vt 2.92325 -3.5
vt -0.9840822 -3.5
vt -4 -3.5
vt -0.9840822 -1.5
vt -4 -1.5
vt -0.9214249 -3.5
vt -0.9214249 -1.5
vt -0.6714249 -3.5
vt -0.6714249 -1.5
vt 2.07675 3.25
vt 0.75 0.08778095
vt 2.92325 3.25
vt -3.745316 -1.5
vt -3.745316 -3.5
vt -3.995316 -1.5
vt -3.995316 -3.5
vt 4.234082 0.08778095
vt 3.5 -1.538462
vt 3.5 1.711538
vt 4 -1.538462
vt 4 1.711538
vt -3.995316 -4
vt -3.745316 -4
vt -0.9214249 -4
vt -0.6714249 -4
vt -4 1.882867
vt -4 -1.540277
vt -2.75 -3.5
vt -2.25 -3.5
vt -2.75 -4
vt -2.25 -4
vt 2.07675 -4
vt 2.92325 -4
vt -3.5 3.638743
vt -3.5 0.3825879
vt -4 3.638743
vt -4 0.3825879
vt 4 0.3711128
vt 4 3.800383
vt -3 0
vt -3 3
vt -2 3
vt 3 0
vt 3 3
vt 2 3
vt 0 -2
vt 3 -2
vt -3 -2
vt 0.2500001 -0.125
vt 0 -0.125
vt 0.2500001 1
vt -1 1.5
vt -0.2500012 -0.125
vt -0.2500012 1
vt 1 1
vt -0.1250001 0.7826238
vt -0.1250001 1.341641
vt 0.8750004 0.7826238
vt 0.8750004 1.341641
vt 0.2500001 -1.125
vt -1.192093E-06 -1.125
vt 1.125 -0.125
vt 1.125 1
vt -0.125 1
vt -0.125 -0.125
vt 0.125 -0.125
vt 0.125 1.5
vt -0.25 1.341641
vt -0.25 0.782624
vt -1.125 1.5
vt -1.125001 -0.125
vt 0.8749999 0.7826235
vt 0.8749999 1.34164
vt 1 0.7826235
vt 1 1.34164
vt 0.670821 -1
vt 0.670821 0
vt 0.7958212 -1
vt 0.7958212 0
vt -0.6708211 0.125
vt -0.6708211 0
vt -0.7958211 0.125
vt -0.7958211 0
vt 0.670821 0.1249999
vt 0.795821 0.1249999
vt 0.3618036 1.055902
vt 0.1118037 1.555902
vt -0.6708213 -1
vt -0.7958213 -1
vt 0.670821 -1.125001
vt 0.795821 -1.125001
vt -0.6708211 -1.125001
vt -0.7958211 -1.125001
vt -0.1118045 1.555902
vt -0.3618045 1.055902
vt 0.2500014 0.1249999
vt -0.1249999 1.341641
vt -0.125 0.7826238
vt -0.25 1.341641
vt -0.1249999 -0.125
vt 0.670821 0.125
vt 0.795821 0.125
vt 0.9999982 0.7826232
vt -1.430511E-06 1.5
vt -0.2500014 0.9999995
vt 0.2500002 0.9999995
vt -1.192093E-06 -0.1249995
vt -0.2500012 -0.1249995
vt 0.2499924 -1.125
vt 0 -1.124999
vt -1.125 -0.125
vt 0.1249998 -0.125
vt 0.999999 1.34164
vt -0.7958217 0.1249993
vt 0.2499998 1
vt 0.05590177 0.5
vt 2.012461 0.5
vt 0.05590177 0
vt 2.012461 0
vt -1.75 0.5
vt -2 0.5
vt 1.75 0.5
vt 2 0.5
vt 5.125 -4.768372E-07
vt 5.125 0.25
vt -0.125 0.2500005
vt -5.125 0
vt 0.125 0.25
vt -5.125 0.2500005
vt -5.125 5.125
vt 0.125 5.125
vt -5.125 -0.125
vt 5.125 -0.125
vt 5.125 5.125
vt -0.125 5.125
vt 3.125 -4.768372E-07
vt 3.125 0.2499999
vt 3.125 0.2500001
vt -3.125 -2.384186E-07
vt 0.125 0.2499999
vt -3.125 0.2500004
vt -3.125 5.125
vt -3.125 3.125
vt 0.125 3.125
vt 3.125 3.125
vt -0.125 3.125
vt 3.125 5.125
vt 0.125 3
vt -0.125 3
vt -0.625 -0.4375
vt -0.625 -0.375
vt 0.7249999 0.125
vt 0.7249999 0
vt 0.0999999 0.125
vt 0.0999999 0
vt 0.625 -0.375
vt 0.625 -0.4375
vt -0.7629099 0
vt -0.7629099 0.125
vt 0.125 0.125
vt 0 -0.4375
vt 0 -0.375
vt 0.125 -0.4375
vt 0.125 -0.375
vt 0.7250004 2.861023E-06
vt 0.1000004 0.1249971
vt 0.1000009 0
vt 0 0.1249962
vt 0.124999 0.125
vt 0.124999 0.1249998
vt 0.1249998 -0.4375
vt 0.1249998 -0.375
vt 0.725 0.125
vt 0.1 0.125
vt 0 0.08231294
vt -0.125 0.08231294
vt 0 2.739849
vt -0.125 2.739849
vt 1.875 2
vt 1.75 2
vt 0.125 2.657537
vt 0 2.657537
vt -1.75 2
vt -1.875 2
vt 0 1.875
vt 0.125 1.875
vt 0 1.75
vt 0.125 1.75
vt -0.125 0.125
vt 2.384186E-07 0.06812334
vt -0.125 0.06812334
vt 2.384186E-07 1.558981
vt -0.125 1.558981
vt 0.9375 1.25
vt 0.8125 1.25
vt 0.125 1.490858
vt -2.384186E-07 1.490858
vt -0.8125005 1.25
vt -0.9375005 1.25
vt -1.192093E-07 0.9375005
vt 0.1250004 0.9375
vt -5.960464E-07 0.8125
vt 0.1249999 0.8124995
vt -0.1249998 1.558981
vt 0.1249998 0
vt 0.1249998 1.490857
vt -0.1249998 0
vt -0.8125 1.25
vt 0 0.08060896
vt -0.125 0.08060896
vt 0 2.697412
vt -0.125 2.697411
vt 1.8125 2
vt 1.6875 2
vt 0.125 2.616802
vt 0 2.616803
vt -1.6875 2
vt -1.8125 2
vt 0 1.8125
vt 0.125 1.8125
vt 0 1.6875
vt 0.125 1.6875
vt 0.9374998 1.25
vt -0.1249988 0.06812334
vt 0.125 0.8124971
vt 0.1250005 1.25
vt -0.125 1.25
vt 0.125 2
vt -0.125 2
vt 0.1249886 -0.1249998
vt 0.125 1.999999
vt -0.1249998 2.000001
vt -0.1249886 -0.1249998
vt -0.125 1.999999
vt 0.125 -1.125
vt -0.1250007 -1.125
vt 0.1249771 -1.125
vt -0.1249776 -1.125
vt -2 0.125
vt 2 0.125

vn 0 0 1
vn -1 0 0
vn 0 4.967054E-09 -1
vn 1 0 0
vn 0 1 0
vn 0 -1 0
vn 8.929531E-08 0.3511235 0.9363292
vn -8.929531E-08 0.3511235 -0.9363292
vn -3.348578E-08 -0.936329 -0.3511239
vn 3.348578E-08 -0.936329 0.3511239
vn 0 -0.3511235 -0.9363292
vn 0 -0.3511235 0.9363292
vn -0.9237764 0.3829323 0
vn 0.9221259 0.3868898 0
vn 0.3511238 -0.936329 0
vn -0.3511238 -0.936329 0
vn 0.9230769 -0.3846154 0
vn -0.9213319 -0.3887768 0
vn 0 0.4472136 -0.8944272
vn 0 -0.894428 -0.4472121
vn 0 0.894428 0.4472121
vn 0.8944272 0.4472136 8.529922E-07
vn 0.4472105 -0.8944287 0
vn -0.4472136 0.8944272 0
vn -0.8944272 0.4472136 0
vn -0.4472136 -0.8944272 0
vn 0.4472136 0.8944272 0
vn -4.264961E-07 0.4472136 0.8944272
vn -2.132473E-07 -0.894428 0.4472121
vn 0 0.894428 -0.4472121
vn -0.6 0.8 0
vn 0.5734624 -0.8192319 0
vn 0.6 0.8 -4.577637E-06
vn -0.5734624 -0.8192319 4.375171E-06
vn 0 0.8 0.6
vn 0 -0.8192319 -0.5734624
vn 0 -0.6585046 0.7525767
vn 0 0.6585046 -0.7525767
vn -0.8384436 -0.5449884 0
vn 0.8384436 0.5449884 0
vn -0.0008971529 -0.5449887 -0.8384429
vn 0.9999994 1.526082E-06 -0.001068115
vn 0.0008971532 0.5449883 0.8384432
vn -0.9999994 -1.526082E-06 0.001068115
vn 0.0009019505 -0.5449886 0.838443
vn -0.0009019508 0.5449884 -0.8384432
vn 0 -0.6448711 0.7642914
vn 0 0.6448709 -0.7642916
vn 0 -0.6448711 -0.7642914
vn 0 0.6448709 0.7642916
vn 0.8384436 -0.5449884 0
vn -0.8384436 0.5449884 0
vn -0.001070022 0 -0.9999994
vn 0.001070022 -1.907348E-07 0.9999994

usemtl house-wood
f 3/3/1 4/4/1 2/2/1 1/1/1
f 7/7/2 8/8/2 6/6/2 5/5/2
f 11/4/3 12/10/3 10/9/3 9/2/3
f 15/13/4 16/14/4 14/12/4 13/11/4
f 12/17/5 11/18/5 4/16/5 3/15/5
f 1/21/6 2/22/6 5/20/6 17/19/6
f 3/25/4 1/26/4 17/24/4 18/23/4
f 2/29/2 4/30/2 7/28/2 5/27/2
f 12/33/4 3/34/4 18/32/4 19/31/4
f 4/34/2 11/37/2 8/36/2 7/35/2
f 9/2/6 10/1/6 20/39/6 6/38/6
f 11/4/2 9/2/2 6/6/2 8/8/2
f 10/2/4 12/4/4 19/13/4 20/11/4
f 15/41/1 13/42/1 20/1/1 19/40/1
f 14/44/3 16/45/3 18/43/3 17/9/3
f 16/46/6 15/47/6 19/39/6 18/19/6
f 108/159/9 109/114/9 98/2/9 105/142/9
f 114/160/2 115/161/2 113/2/2 112/152/2
f 118/162/4 119/163/4 117/145/4 116/2/4
f 119/163/4 121/164/4 120/146/4 117/145/4
f 123/165/2 114/160/2 112/152/2 122/151/2
f 101/168/10 102/169/10 94/167/10 93/166/10
f 121/164/4 125/170/4 124/137/4 120/146/4
f 127/171/2 123/165/2 122/151/2 126/140/2
f 120/173/11 124/174/11 93/147/11 100/172/11
f 124/177/10 125/178/10 101/168/10 93/166/10
f 117/183/6 120/184/6 100/182/6 99/181/6
f 116/116/12 117/187/12 99/186/12 98/2/12
f 118/188/9 116/189/9 98/2/9 109/114/9
f 126/192/11 122/193/11 106/191/11 94/190/11
f 127/194/10 126/195/10 94/167/10 102/169/10
f 113/197/9 115/198/9 108/196/9 105/142/9
f 122/203/6 112/204/6 107/202/6 106/201/6
f 112/208/12 113/209/12 105/137/12 107/207/12
f 136/233/15 137/234/15 140/232/15 133/231/15
f 143/235/3 144/236/3 142/216/3 141/218/3
f 146/237/3 143/235/3 141/218/3 145/217/3
f 128/240/16 129/241/16 132/239/16 96/238/16
f 148/242/3 146/237/3 145/217/3 147/54/3
f 147/245/17 145/246/17 134/244/17 132/243/17
f 148/247/16 147/248/16 132/239/16 129/241/16
f 142/249/15 144/250/15 136/233/15 133/231/15
f 145/255/6 141/256/6 135/254/6 134/253/6
f 141/261/18 142/262/18 133/260/18 135/259/18
f 156/276/4 157/4/4 155/275/4 154/274/4
f 164/4/2 165/279/2 163/278/2 162/275/2
f 154/115/6 155/38/6 162/286/6 163/285/6
f 163/287/3 165/288/3 168/280/3 166/122/3
f 156/289/3 154/290/3 167/2/3 169/22/3
f 154/290/3 163/287/3 166/122/3 167/2/3
f 172/303/20 170/304/20 169/302/20 168/301/20
f 170/304/20 175/310/20 156/309/20 169/302/20
f 175/311/4 174/312/4 157/4/4 156/276/4
f 176/316/20 172/303/20 168/301/20 165/315/20
f 177/319/2 176/320/2 165/279/2 164/4/2
f 180/276/4 181/4/4 179/275/4 178/274/4
f 188/4/2 189/279/2 187/278/2 186/275/2
f 178/321/6 179/38/6 186/286/6 187/285/6
f 187/287/3 189/288/3 192/280/3 190/122/3
f 180/289/3 178/290/3 191/2/3 193/22/3
f 178/325/3 187/287/3 190/122/3 191/2/3
f 196/303/20 194/304/20 193/302/20 192/301/20
f 194/304/20 199/327/20 180/326/20 193/302/20
f 199/311/4 198/312/4 181/4/4 180/276/4
f 200/316/20 196/303/20 192/301/20 189/315/20
f 201/319/2 200/320/2 189/279/2 188/4/2
f 204/276/4 205/4/4 203/275/4 202/274/4
f 212/4/2 213/279/2 211/278/2 210/275/2
f 202/321/6 203/38/6 210/286/6 211/285/6
f 211/287/3 213/288/3 216/280/3 214/122/3
f 204/289/3 202/290/3 215/2/3 217/22/3
f 202/325/3 211/287/3 214/122/3 215/2/3
f 220/303/20 218/304/20 217/302/20 216/301/20
f 218/304/20 223/327/20 204/326/20 217/302/20
f 223/311/4 222/312/4 205/4/4 204/276/4
f 224/316/20 220/303/20 216/301/20 213/315/20
f 225/319/2 224/320/2 213/279/2 212/4/2
f 228/276/1 229/4/1 227/275/1 226/274/1
f 236/4/3 237/279/3 235/278/3 234/275/3
f 226/115/6 227/38/6 234/286/6 235/285/6
f 235/287/4 237/288/4 240/280/4 238/122/4
f 228/289/4 226/290/4 239/2/4 241/22/4
f 226/325/4 235/287/4 238/122/4 239/2/4
f 244/303/23 242/304/23 241/302/23 240/301/23
f 242/304/23 247/327/23 228/326/23 241/302/23
f 247/311/1 246/312/1 229/4/1 228/276/1
f 248/316/23 244/303/23 240/301/23 237/315/23
f 249/319/3 248/320/3 237/279/3 236/4/3
f 252/276/3 253/4/3 251/275/3 250/274/3
f 260/4/1 261/279/1 259/278/1 258/275/1
f 250/115/6 251/38/6 258/286/6 259/285/6
f 259/287/2 261/288/2 264/280/2 262/122/2
f 252/289/2 250/290/2 263/2/2 265/22/2
f 250/325/2 259/287/2 262/122/2 263/2/2
f 268/303/26 266/304/26 265/302/26 264/301/26
f 266/304/26 271/327/26 252/326/26 265/302/26
f 271/311/3 270/312/3 253/4/3 252/276/3
f 272/316/26 268/303/26 264/301/26 261/315/26
f 273/319/1 272/320/1 261/279/1 260/4/1
f 276/276/3 277/4/3 275/275/3 274/274/3
f 284/4/1 285/279/1 283/278/1 282/275/1
f 274/115/6 275/38/6 282/286/6 283/285/6
f 283/287/2 285/288/2 288/280/2 286/122/2
f 276/289/2 274/290/2 287/2/2 289/22/2
f 274/325/2 283/287/2 286/122/2 287/2/2
f 292/303/26 290/304/26 289/302/26 288/301/26
f 290/304/26 295/310/26 276/309/26 289/302/26
f 295/311/3 294/312/3 277/4/3 276/276/3
f 296/316/26 292/303/26 288/301/26 285/315/26
f 297/319/1 296/320/1 285/279/1 284/4/1
f 300/276/1 301/4/1 299/275/1 298/274/1
f 308/4/3 309/279/3 307/278/3 306/275/3
f 298/115/6 299/38/6 306/286/6 307/285/6
f 307/287/4 309/288/4 312/280/4 310/122/4
f 300/289/4 298/290/4 311/2/4 313/22/4
f 298/290/4 307/287/4 310/122/4 311/2/4
f 316/303/23 314/304/23 313/302/23 312/301/23
f 314/304/23 319/327/23 300/326/23 313/302/23
f 319/311/1 318/312/1 301/4/1 300/276/1
f 320/316/23 316/303/23 312/301/23 309/315/23
f 321/319/3 320/320/3 309/279/3 308/4/3
f 324/276/3 325/4/3 323/275/3 322/274/3
f 332/4/1 333/279/1 331/278/1 330/275/1
f 322/115/6 323/38/6 330/286/6 331/285/6
f 331/287/2 333/288/2 336/280/2 334/122/2
f 324/289/2 322/290/2 335/2/2 337/22/2
f 322/290/2 331/287/2 334/122/2 335/2/2
f 340/303/26 338/304/26 337/302/26 336/301/26
f 338/304/26 343/327/26 324/326/26 337/302/26
f 343/311/3 342/312/3 325/4/3 324/276/3
f 344/316/26 340/303/26 336/301/26 333/315/26
f 345/319/1 344/320/1 333/279/1 332/4/1
f 348/276/2 349/4/2 347/275/2 346/274/2
f 356/4/4 357/279/4 355/278/4 354/275/4
f 346/115/6 347/38/6 354/286/6 355/285/6
f 355/287/1 357/288/1 360/280/1 358/122/1
f 348/289/1 346/290/1 359/2/1 361/22/1
f 346/325/1 355/287/1 358/122/1 359/2/1
f 364/303/29 362/304/29 361/302/29 360/301/29
f 362/304/29 367/327/29 348/326/29 361/302/29
f 367/311/2 366/312/2 349/4/2 348/276/2
f 368/316/29 364/303/29 360/301/29 357/315/29
f 369/319/4 368/320/4 357/279/4 356/4/4
f 372/276/2 373/4/2 371/275/2 370/274/2
f 380/4/4 381/279/4 379/278/4 378/275/4
f 370/115/6 371/38/6 378/286/6 379/285/6
f 379/287/1 381/288/1 384/280/1 382/122/1
f 372/289/1 370/290/1 383/2/1 385/22/1
f 370/325/1 379/287/1 382/122/1 383/2/1
f 388/303/29 386/304/29 385/302/29 384/301/29
f 386/304/29 391/327/29 372/326/29 385/302/29
f 391/311/2 390/312/2 373/4/2 372/276/2
f 392/316/29 388/303/29 384/301/29 381/315/29
f 393/319/4 392/320/4 381/279/4 380/4/4
f 396/276/2 397/4/2 395/275/2 394/274/2
f 404/4/4 405/279/4 403/278/4 402/275/4
f 394/115/6 395/38/6 402/286/6 403/285/6
f 403/287/1 405/288/1 408/280/1 406/122/1
f 396/289/1 394/290/1 407/2/1 409/22/1
f 394/325/1 403/287/1 406/122/1 407/2/1
f 412/303/29 410/304/29 409/302/29 408/301/29
f 410/304/29 415/327/29 396/326/29 409/302/29
f 415/311/2 414/312/2 397/4/2 396/276/2
f 416/316/29 412/303/29 408/301/29 405/315/29
f 417/319/4 416/320/4 405/279/4 404/4/4
f 420/276/1 421/4/1 419/275/1 418/274/1
f 428/329/3 429/330/3 427/278/3 426/275/3
f 418/115/6 419/38/6 426/286/6 427/285/6
f 427/287/4 429/288/4 432/280/4 430/122/4
f 420/289/4 418/290/4 431/2/4 433/22/4
f 418/290/4 427/287/4 430/122/4 431/2/4
f 436/303/23 434/304/23 433/302/23 432/301/23
f 434/304/23 439/327/23 420/326/23 433/302/23
f 439/311/1 438/312/1 421/329/1 420/331/1
f 440/316/23 436/303/23 432/301/23 429/315/23
f 441/319/3 440/320/3 429/279/3 428/4/3
f 444/276/3 445/4/3 443/275/3 442/274/3
f 452/4/1 453/279/1 451/333/1 450/332/1
f 442/321/6 443/38/6 450/335/6 451/334/6
f 451/287/2 453/288/2 456/280/2 454/122/2
f 444/289/2 442/290/2 455/2/2 457/22/2
f 442/325/2 451/287/2 454/122/2 455/2/2
f 460/303/26 458/304/26 457/302/26 456/301/26
f 458/304/26 463/310/26 444/326/26 457/302/26
f 463/311/3 462/312/3 445/4/3 444/340/3
f 464/316/26 460/303/26 456/301/26 453/315/26
f 465/319/1 464/320/1 453/279/1 452/4/1
f 475/350/1 476/351/1 474/11/1 473/349/1
f 476/350/4 478/351/4 477/11/4 474/349/4
f 478/353/3 480/354/3 479/352/3 477/6/3
f 480/353/2 475/354/2 473/352/2 479/6/2
f 480/357/6 478/291/6 476/356/6 475/355/6
f 473/359/5 474/360/5 477/290/5 479/358/5
f 483/350/1 484/351/1 482/11/1 481/349/1
f 484/350/4 486/351/4 485/11/4 482/349/4
f 486/353/3 488/354/3 487/352/3 485/6/3
f 488/353/2 483/354/2 481/352/2 487/6/2
f 488/357/6 486/291/6 484/356/6 483/355/6
f 481/359/5 482/360/5 485/290/5 487/358/5
f 491/350/1 492/351/1 490/11/1 489/349/1
f 492/350/4 494/351/4 493/11/4 490/349/4
f 494/353/3 496/354/3 495/352/3 493/6/3
f 496/353/2 491/354/2 489/352/2 495/6/2
f 496/357/6 494/291/6 492/356/6 491/355/6
f 489/359/5 490/360/5 493/290/5 495/358/5
f 480/362/1 498/351/1 497/11/1 479/361/1
f 498/350/4 500/363/4 499/361/4 497/349/4
f 500/365/3 502/366/3 501/364/3 499/6/3
f 502/366/2 480/354/2 479/352/2 501/364/2
f 502/368/6 500/369/6 498/356/6 480/367/6
f 479/372/5 497/360/5 499/371/5 501/370/5
f 488/363/1 504/351/1 503/11/1 487/361/1
f 504/350/4 506/363/4 505/361/4 503/349/4
f 506/353/3 508/366/3 507/364/3 505/6/3
f 508/366/2 488/354/2 487/352/2 507/364/2
f 508/368/6 506/369/6 504/356/6 488/367/6
f 487/372/5 503/360/5 505/371/5 507/370/5
f 496/363/1 510/351/1 509/11/1 495/361/1
f 510/350/4 512/363/4 511/361/4 509/349/4
f 512/353/3 514/366/3 513/364/3 511/6/3
f 514/366/2 496/354/2 495/352/2 513/364/2
f 514/368/6 512/369/6 510/356/6 496/367/6
f 495/372/5 509/360/5 511/371/5 513/370/5
f 516/373/1 98/138/1 97/2/1 515/6/1
f 98/138/2 518/374/2 517/11/2 97/2/2
f 518/138/3 493/374/3 477/11/3 517/2/3
f 493/373/4 516/138/4 515/2/4 477/6/4
f 493/290/5 518/275/5 98/2/5 516/11/5
f 515/6/6 97/2/6 517/275/6 477/291/6
f 521/2/1 522/11/1 520/376/1 519/375/1
f 522/379/31 524/380/31 523/378/31 520/377/31
f 524/6/3 526/2/3 525/382/3 523/381/3
f 526/2/32 521/38/32 519/384/32 525/383/32
f 526/2/5 524/6/5 522/385/5 521/38/5
f 519/388/2 520/389/2 523/387/2 525/386/2
f 529/2/3 530/11/3 528/376/3 527/375/3
f 530/391/33 532/392/33 531/390/33 528/377/33
f 532/6/1 534/2/1 533/382/1 531/381/1
f 534/2/34 529/393/34 527/384/34 533/383/34
f 534/2/5 532/6/5 530/394/5 529/393/5
f 527/388/4 528/389/4 531/387/4 533/386/4
f 537/2/1 538/11/1 536/376/1 535/375/1
f 538/379/31 540/380/31 539/378/31 536/377/31
f 540/6/3 542/2/3 541/382/3 539/381/3
f 542/2/32 537/38/32 535/384/32 541/383/32
f 542/2/5 540/6/5 538/385/5 537/38/5
f 535/388/2 536/389/2 539/387/2 541/386/2
f 545/2/3 546/11/3 544/376/3 543/375/3
f 546/391/33 548/392/33 547/390/33 544/377/33
f 548/6/1 550/2/1 549/382/1 547/381/1
f 550/2/34 545/393/34 543/384/34 549/383/34
f 550/2/5 548/6/5 546/394/5 545/393/5
f 543/388/4 544/389/4 547/387/4 549/386/4
f 553/2/1 554/11/1 552/376/1 551/375/1
f 554/379/31 556/380/31 555/378/31 552/377/31
f 556/6/3 558/2/3 557/382/3 555/381/3
f 558/2/32 553/38/32 551/384/32 557/383/32
f 558/2/5 556/6/5 554/385/5 553/38/5
f 551/388/2 552/389/2 555/387/2 557/386/2
f 561/2/3 562/11/3 560/376/3 559/375/3
f 562/391/33 564/392/33 563/390/33 560/377/33
f 564/6/1 566/2/1 565/382/1 563/381/1
f 566/2/34 561/393/34 559/384/34 565/383/34
f 566/2/5 564/6/5 562/395/5 561/393/5
f 559/396/4 560/397/4 563/387/4 565/386/4
f 569/2/1 570/11/1 568/376/1 567/375/1
f 570/379/31 572/380/31 571/378/31 568/377/31
f 572/6/3 574/2/3 573/382/3 571/381/3
f 574/2/32 569/38/32 567/384/32 573/383/32
f 574/2/5 572/6/5 570/385/5 569/38/5
f 567/388/2 568/389/2 571/387/2 573/386/2
f 577/2/3 578/11/3 576/376/3 575/375/3
f 578/391/33 580/392/33 579/390/33 576/377/33
f 580/6/1 582/2/1 581/382/1 579/381/1
f 582/2/34 577/393/34 575/384/34 581/383/34
f 582/2/5 580/6/5 578/394/5 577/393/5
f 575/388/4 576/389/4 579/387/4 581/386/4
f 585/2/3 586/11/3 584/376/3 583/375/3
f 586/391/33 588/392/33 587/390/33 584/377/33
f 588/6/1 590/2/1 589/382/1 587/381/1
f 590/2/34 585/393/34 583/384/34 589/383/34
f 590/2/5 588/6/5 586/394/5 585/393/5
f 583/388/4 584/389/4 587/387/4 589/386/4
f 593/2/3 594/11/3 592/376/3 591/375/3
f 594/391/33 596/392/33 595/390/33 592/377/33
f 596/6/1 598/2/1 597/382/1 595/381/1
f 598/2/34 593/393/34 591/384/34 597/383/34
f 598/2/5 596/6/5 594/394/5 593/393/5
f 591/388/4 592/389/4 595/387/4 597/386/4
f 601/2/4 602/11/4 600/376/4 599/375/4
f 602/399/35 604/392/35 603/390/35 600/398/35
f 604/6/2 606/2/2 605/382/2 603/381/2
f 606/2/36 601/38/36 599/384/36 605/383/36
f 606/2/5 604/6/5 602/385/5 601/38/5
f 599/388/1 600/389/1 603/387/1 605/386/1
f 609/2/4 610/11/4 608/376/4 607/375/4
f 610/399/35 612/392/35 611/390/35 608/398/35
f 612/6/2 614/2/2 613/382/2 611/381/2
f 614/2/36 609/38/36 607/384/36 613/383/36
f 614/2/5 612/6/5 610/385/5 609/38/5
f 607/388/1 608/389/1 611/387/1 613/386/1
f 617/2/4 618/11/4 616/376/4 615/375/4
f 618/399/35 620/392/35 619/390/35 616/398/35
f 620/6/2 622/2/2 621/382/2 619/381/2
f 622/2/36 617/38/36 615/384/36 621/383/36
f 622/2/5 620/6/5 618/385/5 617/38/5
f 615/388/1 616/389/1 619/387/1 621/386/1
f 490/373/1 624/138/1 623/2/1 474/6/1
f 624/138/2 93/374/2 91/11/2 623/2/2
f 93/138/3 626/374/3 625/11/3 91/2/3
f 626/373/4 490/138/4 474/2/4 625/6/4
f 626/290/5 93/275/5 624/2/5 490/11/5
f 474/6/6 623/2/6 91/275/6 625/291/6
f 628/373/1 489/138/1 473/2/1 627/6/1
f 489/138/2 630/374/2 629/11/2 473/2/2
f 630/138/3 94/374/3 92/11/3 629/2/3
f 94/373/4 628/138/4 627/2/4 92/6/4
f 94/290/5 630/275/5 489/2/5 628/11/5
f 627/6/6 473/2/6 629/275/6 92/291/6
f 132/373/1 632/138/1 631/2/1 151/6/1
f 632/138/2 513/374/2 501/11/2 631/2/2
f 513/138/3 634/374/3 633/11/3 501/2/3
f 634/373/4 132/138/4 151/2/4 633/6/4
f 634/290/5 513/275/5 632/2/5 132/11/5
f 151/6/6 631/2/6 501/275/6 633/291/6
f 636/373/1 153/138/1 152/2/1 635/6/1
f 153/138/2 638/374/2 637/11/2 152/2/2
f 638/138/3 511/374/3 499/11/3 637/2/3
f 511/373/4 636/138/4 635/2/4 499/6/4
f 511/290/5 638/275/5 153/2/5 636/11/5
f 635/6/6 152/2/6 637/275/6 499/291/6
f 510/402/37 641/403/37 640/401/37 639/400/37
f 641/404/2 643/405/2 642/2/2 640/6/2
f 643/406/38 645/407/38 644/2/38 642/6/38
f 645/408/4 510/409/4 639/11/4 644/2/4
f 645/412/5 643/413/5 641/411/5 510/410/5
f 639/38/6 640/414/6 642/11/6 644/2/6
f 648/417/39 649/418/39 647/416/39 646/415/39
f 649/419/3 651/420/3 650/2/3 647/6/3
f 651/421/40 653/422/40 652/2/40 650/6/40
f 653/423/1 648/424/1 646/11/1 652/2/1
f 653/427/5 651/428/5 649/426/5 648/425/5
f 646/38/6 647/414/6 650/11/6 652/2/6
f 656/417/41 657/429/41 655/416/41 654/415/41
f 657/419/42 659/420/42 658/2/42 655/430/42
f 659/431/43 661/422/43 660/2/43 658/6/43
f 661/433/44 656/424/44 654/432/44 660/2/44
f 661/427/5 659/428/5 657/426/5 656/425/5
f 654/38/6 655/414/6 658/11/6 660/2/6
f 664/417/45 665/429/45 663/416/45 662/415/45
f 665/419/44 667/420/44 666/2/44 663/6/44
f 667/421/46 669/422/46 668/2/46 666/430/46
f 669/423/42 664/424/42 662/11/42 668/2/42
f 669/427/5 667/428/5 665/426/5 664/425/5
f 662/38/6 663/414/6 666/11/6 668/2/6
f 672/436/47 673/437/47 671/435/47 670/434/47
f 673/438/2 675/439/2 674/2/2 671/6/2
f 675/440/48 677/441/48 676/2/48 674/6/48
f 677/442/4 672/443/4 670/11/4 676/2/4
f 677/446/5 675/447/5 673/445/5 672/444/5
f 670/38/6 671/414/6 674/11/6 676/2/6
f 680/436/49 681/437/49 679/435/49 678/434/49
f 681/438/4 683/439/4 682/2/4 679/6/4
f 683/440/50 685/441/50 684/2/50 682/6/50
f 685/442/2 680/443/2 678/11/2 684/2/2
f 685/446/5 683/447/5 681/445/5 680/444/5
f 678/38/6 679/414/6 682/11/6 684/2/6
f 688/417/51 689/418/51 687/416/51 686/415/51
f 689/448/1 691/420/1 690/2/1 687/6/1
f 691/421/52 693/422/52 692/2/52 690/6/52
f 693/423/3 688/424/3 686/11/3 692/2/3
f 693/427/5 691/428/5 689/426/5 688/425/5
f 686/38/6 687/414/6 690/11/6 692/2/6
f 696/417/45 697/418/45 695/449/45 694/415/45
f 697/419/44 699/420/44 698/2/44 695/6/44
f 699/431/46 701/422/46 700/2/46 698/6/46
f 701/433/42 696/424/42 694/432/42 700/2/42
f 701/427/5 699/450/5 697/426/5 696/425/5
f 694/38/6 695/414/6 698/11/6 700/2/6
f 704/417/41 705/429/41 703/416/41 702/415/41
f 705/419/42 707/420/42 706/2/42 703/6/42
f 707/421/43 709/422/43 708/2/43 706/430/43
f 709/433/44 704/424/44 702/11/44 708/2/44
f 709/427/5 707/450/5 705/426/5 704/425/5
f 702/38/6 703/414/6 706/11/6 708/2/6
f 710/373/1 711/138/1 652/2/1 690/6/1
f 711/138/2 712/374/2 650/11/2 652/2/2
f 712/138/3 713/374/3 692/11/3 650/2/3
f 713/373/4 710/138/4 690/2/4 692/6/4
f 713/290/5 712/275/5 711/2/5 710/11/5
f 690/6/6 652/2/6 650/275/6 692/291/6
f 714/451/44 715/16/44 660/2/44 698/6/44
f 715/16/53 716/452/53 658/11/53 660/2/53
f 716/16/42 717/452/42 700/432/42 658/2/42
f 717/451/54 714/16/54 698/2/54 700/6/54
f 717/290/5 716/275/5 715/2/5 714/11/5
f 698/6/6 660/2/6 658/275/6 700/337/6
f 718/451/42 719/16/42 668/2/42 706/6/42
f 719/16/54 720/452/54 666/11/54 668/2/54
f 720/16/44 721/452/44 708/11/44 666/2/44
f 721/451/53 718/16/53 706/2/53 708/6/53
f 721/290/5 720/275/5 719/2/5 718/11/5
f 706/430/6 668/2/6 666/275/6 708/291/6
f 724/453/1 725/66/1 723/2/1 722/6/1
f 725/66/2 727/454/2 726/11/2 723/2/2
f 727/66/3 729/454/3 728/11/3 726/2/3
f 729/453/4 724/66/4 722/2/4 728/6/4
f 729/290/5 727/275/5 725/2/5 724/11/5
f 722/6/6 723/2/6 726/275/6 728/291/6
f 732/453/1 733/66/1 731/2/1 730/6/1
f 733/66/2 735/454/2 734/11/2 731/2/2
f 735/66/3 737/454/3 736/11/3 734/2/3
f 737/453/4 732/66/4 730/2/4 736/6/4
f 737/290/5 735/275/5 733/2/5 732/11/5
f 730/6/6 731/2/6 734/275/6 736/291/6
f 740/453/1 741/66/1 739/2/1 738/6/1
f 741/66/2 743/454/2 742/11/2 739/2/2
f 743/66/3 745/454/3 744/11/3 742/2/3
f 745/453/4 740/66/4 738/2/4 744/6/4
f 745/290/5 743/275/5 741/2/5 740/11/5
f 738/6/6 739/2/6 742/275/6 744/291/6
f 748/453/3 749/66/3 747/2/3 746/6/3
f 749/66/4 751/454/4 750/11/4 747/2/4
f 751/66/1 753/454/1 752/11/1 750/2/1
f 753/453/2 748/66/2 746/2/2 752/6/2
f 753/325/5 751/332/5 749/2/5 748/11/5
f 746/6/6 747/2/6 750/332/6 752/337/6
f 756/453/6 757/66/6 755/275/6 754/291/6
f 757/66/2 759/454/2 758/290/2 755/275/2
f 759/66/5 761/454/5 760/290/5 758/275/5
f 761/453/4 756/66/4 754/275/4 760/337/4
f 761/290/1 759/275/1 757/2/1 756/11/1
f 754/6/3 755/2/3 758/275/3 760/291/3
f 764/456/6 765/66/6 763/332/6 762/455/6
f 765/66/4 767/457/4 766/290/4 763/275/4
f 767/66/5 769/459/5 768/458/5 766/332/5
f 769/453/2 764/66/2 762/275/2 768/337/2
f 769/290/3 767/275/3 765/2/3 764/11/3
f 762/6/1 763/2/1 766/275/1 768/291/1
f 772/373/6 773/138/6 771/286/6 770/460/6
f 773/138/2 775/374/2 774/461/2 771/286/2
f 775/138/5 777/374/5 776/461/5 774/286/5
f 777/373/4 772/138/4 770/286/4 776/460/4
f 777/290/1 775/275/1 773/2/1 772/11/1
f 770/6/3 771/2/3 774/275/3 776/291/3
f 780/373/6 781/138/6 779/335/6 778/462/6
f 781/138/4 783/374/4 782/461/4 779/286/4
f 783/138/5 785/374/5 784/463/5 782/335/5
f 785/373/2 780/138/2 778/286/2 784/460/2
f 785/290/3 783/275/3 781/2/3 780/11/3
f 778/6/1 779/2/1 782/275/1 784/291/1
f 787/453/1 496/66/1 487/2/1 786/6/1
f 496/66/2 788/454/2 684/11/2 487/2/2
f 788/66/3 789/454/3 682/11/3 684/2/3
f 789/453/4 787/66/4 786/2/4 682/6/4
f 789/290/5 788/275/5 496/2/5 787/11/5
f 786/6/6 487/2/6 684/275/6 682/291/6
f 791/373/1 150/138/1 149/2/1 790/6/1
f 150/138/2 793/374/2 792/11/2 149/2/2
f 793/138/3 509/374/3 497/11/3 792/2/3
f 509/373/4 791/138/4 790/2/4 497/6/4
f 509/290/5 793/275/5 150/2/5 791/11/5
f 790/6/6 149/2/6 792/275/6 497/291/6
f 794/38/1 795/464/1 648/48/1 689/2/1
f 795/385/2 796/38/2 649/2/2 648/6/2
f 796/465/3 797/38/3 688/2/3 649/52/3
f 797/38/4 794/414/4 689/11/4 688/2/4
f 797/2/5 796/52/5 795/465/5 794/38/5
f 689/38/6 648/464/6 649/48/6 688/2/6

usemtl house-stone
f 48/100/1 50/101/1 52/77/1
f 52/77/1 54/81/1 56/103/1
f 56/103/1 58/106/1 60/105/1
f 60/105/1 62/109/1 64/108/1
f 64/108/1 66/110/1 68/84/1
f 68/84/1 70/94/1 72/112/1
f 72/112/1 74/113/1 2/49/1
f 51/117/3 49/118/3 47/115/3
f 55/120/3 53/121/3 51/117/3
f 59/123/3 57/124/3 55/120/3
f 63/126/3 61/127/3 59/123/3
f 67/129/3 65/130/3 63/126/3
f 71/132/3 69/133/3 67/129/3
f 9/53/3 73/134/3 71/132/3
f 24/49/1 22/48/1 21/2/1
f 21/2/1 23/22/1 24/49/1
f 26/51/2 25/50/2 22/2/2
f 22/2/2 24/22/2 26/51/2
f 28/22/3 27/2/3 25/52/3
f 25/52/3 26/53/3 28/22/3
f 23/22/4 21/2/4 27/54/4
f 27/54/4 28/55/4 23/22/4
f 26/57/5 24/52/5 23/2/5
f 23/2/5 28/56/5 26/57/5
f 22/48/6 25/58/6 27/56/6
f 27/56/6 21/2/6 22/48/6
f 30/22/1 29/2/1 22/52/1
f 22/52/1 24/53/1 30/22/1
f 32/60/2 31/59/2 29/2/2
f 29/2/2 30/22/2 32/60/2
f 34/49/3 33/48/3 31/2/3
f 31/2/3 32/22/3 34/49/3
f 24/22/4 22/2/4 33/61/4
f 33/61/4 34/62/4 24/22/4
f 32/64/5 30/2/5 24/48/5
f 24/48/5 34/63/5 32/64/5
f 29/2/6 31/64/6 33/65/6
f 33/65/6 22/52/6 29/2/6
f 36/67/1 30/50/1 23/2/1
f 23/2/1 35/66/1 36/67/1
f 38/67/2 37/50/2 30/2/2
f 30/2/2 36/66/2 38/67/2
f 39/66/3 28/2/3 37/54/3
f 37/54/3 38/68/3 39/66/3
f 35/66/4 23/2/4 28/54/4
f 28/54/4 39/68/4 35/66/4
f 38/69/5 36/54/5 35/2/5
f 35/2/5 39/56/5 38/69/5
f 30/50/6 37/70/6 28/56/6
f 28/56/6 23/2/6 30/50/6
f 38/66/1 37/2/1 26/52/1
f 26/52/1 40/71/1 38/66/1
f 41/66/2 32/2/2 37/52/2
f 37/52/2 38/71/2 41/66/2
f 42/72/3 34/48/3 32/2/3
f 32/2/3 41/66/3 42/72/3
f 40/72/4 26/48/4 34/2/4
f 34/2/4 42/66/4 40/72/4
f 41/2/5 38/66/5 40/72/5
f 40/72/5 42/48/5 41/2/5
f 37/66/6 32/2/6 34/52/6
f 34/52/6 26/71/6 37/66/6
f 46/76/4 44/74/4 43/73/4
f 43/73/4 45/75/4 46/76/4
f 48/78/5 46/74/5 45/73/5
f 45/73/5 47/77/5 48/78/5
f 50/78/4 48/76/4 47/75/4
f 47/75/4 49/77/4 50/78/4
f 52/80/5 50/78/5 49/77/5
f 49/77/5 51/79/5 52/80/5
f 54/82/4 52/78/4 51/77/4
f 51/77/4 53/81/4 54/82/4
f 56/84/5 54/80/5 53/79/5
f 53/79/5 55/83/5 56/84/5
f 58/80/4 56/82/4 55/81/4
f 55/81/4 57/79/4 58/80/4
f 60/86/5 58/84/5 57/83/5
f 57/83/5 59/85/5 60/86/5
f 62/88/4 60/80/4 59/79/4
f 59/79/4 61/87/4 62/88/4
f 64/90/5 62/86/5 61/85/5
f 61/85/5 63/89/5 64/90/5
f 66/84/4 64/88/4 63/87/4
f 63/87/4 65/83/4 66/84/4
f 68/92/5 66/90/5 65/89/5
f 65/89/5 67/91/5 68/92/5
f 70/94/4 68/84/4 67/83/4
f 67/83/4 69/93/4 70/94/4
f 72/96/5 70/92/5 69/91/5
f 69/91/5 71/95/5 72/96/5
f 74/86/4 72/94/4 71/93/4
f 71/93/4 73/85/4 74/86/4
f 2/98/5 74/96/5 73/95/5
f 73/95/5 9/97/5 2/98/5
f 48/100/1 75/99/1 44/2/1
f 44/2/1 46/38/1 48/100/1
f 52/77/1 76/73/1 75/99/1
f 75/99/1 48/100/1 52/77/1
f 56/103/1 77/102/1 76/73/1
f 76/73/1 52/77/1 56/103/1
f 60/105/1 78/104/1 77/102/1
f 77/102/1 56/103/1 60/105/1
f 64/108/1 79/107/1 78/104/1
f 78/104/1 60/105/1 64/108/1
f 68/84/1 80/74/1 79/107/1
f 79/107/1 64/108/1 68/84/1
f 72/112/1 81/111/1 80/74/1
f 80/74/1 68/84/1 72/112/1
f 2/49/1 82/48/1 81/111/1
f 81/111/1 72/112/1 2/49/1
f 45/38/3 43/2/3 83/114/3
f 83/114/3 47/115/3 45/38/3
f 47/115/3 83/114/3 84/116/3
f 84/116/3 51/117/3 47/115/3
f 51/117/3 84/116/3 85/119/3
f 85/119/3 55/120/3 51/117/3
f 55/120/3 85/119/3 86/122/3
f 86/122/3 59/123/3 55/120/3
f 59/123/3 86/122/3 87/125/3
f 87/125/3 63/126/3 59/123/3
f 63/126/3 87/125/3 88/128/3
f 88/128/3 67/129/3 63/126/3
f 67/129/3 88/128/3 89/131/3
f 89/131/3 71/132/3 67/129/3
f 71/132/3 89/131/3 90/52/3
f 90/52/3 9/53/3 71/132/3
f 9/136/2 90/116/2 82/128/2
f 82/128/2 2/135/2 9/136/2
f 468/113/1 466/111/1 27/2/1
f 27/2/1 467/38/1 468/113/1
f 2/22/2 82/2/2 25/116/2
f 25/116/2 26/136/2 2/22/2
f 46/38/3 44/2/3 81/131/3
f 81/131/3 74/134/3 46/38/3
f 467/75/4 27/73/4 44/2/4
f 44/2/4 46/38/4 467/75/4
f 74/344/27 468/342/27 467/341/27
f 467/341/27 46/343/27 74/344/27
f 466/345/6 81/111/6 44/2/6
f 44/2/6 27/189/6 466/345/6
f 82/48/6 81/111/6 466/345/6
f 466/345/6 25/346/6 82/48/6
f 25/48/1 466/111/1 468/113/1
f 468/113/1 26/49/1 25/48/1
f 2/53/3 74/134/3 81/131/3
f 81/131/3 82/52/3 2/53/3
f 26/348/5 468/347/5 74/131/5
f 74/131/5 2/52/5 26/348/5
f 73/113/1 89/111/1 43/2/1
f 43/2/1 45/38/1 73/113/1
f 34/22/2 33/2/2 90/116/2
f 90/116/2 9/136/2 34/22/2
f 472/38/3 470/2/3 469/131/3
f 469/131/3 471/134/3 472/38/3
f 45/75/4 43/73/4 470/2/4
f 470/2/4 472/38/4 45/75/4
f 471/344/27 73/342/27 45/341/27
f 45/341/27 472/343/27 471/344/27
f 89/345/6 469/111/6 470/2/6
f 470/2/6 43/189/6 89/345/6
f 33/48/6 469/111/6 89/345/6
f 89/345/6 90/346/6 33/48/6
f 90/48/1 89/111/1 73/113/1
f 73/113/1 9/49/1 90/48/1
f 34/53/3 471/134/3 469/131/3
f 469/131/3 33/52/3 34/53/3
f 9/348/5 73/347/5 471/131/5
f 471/131/5 34/52/5 9/348/5

usemtl house-plaster
f 93/138/1 94/139/1 92/137/1 91/2/1
f 94/138/2 96/139/2 95/137/2 92/2/2
f 96/141/3 98/138/3 97/2/3 95/140/3
f 98/141/4 93/138/4 91/2/4 97/140/4
f 98/142/5 96/143/5 94/140/5 93/2/5
f 91/2/6 92/137/6 95/144/6 97/142/6
f 99/145/4 100/146/4 93/137/4 98/2/4
f 106/151/2 107/152/2 105/2/2 94/140/2
f 98/2/6 93/137/6 94/144/6 105/142/6
f 134/217/3 135/218/3 133/216/3 132/54/3
f 140/229/6 96/230/6 132/228/6 133/227/6
f 150/138/1 96/266/1 95/265/1 149/2/1
f 96/138/2 132/267/2 151/48/2 95/2/2
f 132/269/3 153/138/3 152/2/3 151/268/3
f 153/270/4 150/138/4 149/2/4 152/52/4
f 153/271/5 132/272/5 96/268/5 150/2/5
f 149/2/6 95/265/6 151/273/6 152/271/6
f 160/4/1 161/277/1 159/104/1 158/2/1
f 155/291/1 157/292/1 160/4/1 158/2/1
f 164/295/1 162/296/1 159/104/1 161/25/1
f 162/296/1 155/291/1 158/2/1 159/104/1
f 174/307/21 171/308/21 160/306/21 157/305/21
f 173/314/21 177/318/21 164/317/21 161/313/21
f 184/4/1 185/277/1 183/104/1 182/2/1
f 179/291/1 181/292/1 184/4/1 182/2/1
f 188/295/1 186/296/1 183/104/1 185/25/1
f 186/296/1 179/291/1 182/2/1 183/104/1
f 198/307/21 195/308/21 184/306/21 181/305/21
f 197/314/21 201/318/21 188/317/21 185/313/21
f 208/4/1 209/277/1 207/104/1 206/2/1
f 203/291/1 205/292/1 208/4/1 206/2/1
f 212/295/1 210/296/1 207/26/1 209/25/1
f 210/296/1 203/291/1 206/2/1 207/104/1
f 222/307/21 219/308/21 208/306/21 205/305/21
f 221/314/21 225/318/21 212/317/21 209/313/21
f 232/4/2 233/277/2 231/104/2 230/2/2
f 227/291/2 229/292/2 232/4/2 230/2/2
f 236/295/2 234/296/2 231/104/2 233/25/2
f 234/296/2 227/291/2 230/2/2 231/104/2
f 246/307/24 243/308/24 232/306/24 229/305/24
f 245/314/24 249/318/24 236/317/24 233/313/24
f 256/4/4 257/277/4 255/104/4 254/2/4
f 251/291/4 253/292/4 256/4/4 254/2/4
f 260/295/4 258/296/4 255/104/4 257/277/4
f 258/296/4 251/291/4 254/2/4 255/104/4
f 270/307/27 267/308/27 256/306/27 253/305/27
f 269/314/27 273/318/27 260/317/27 257/313/27
f 280/4/4 281/277/4 279/104/4 278/2/4
f 275/291/4 277/292/4 280/4/4 278/2/4
f 284/295/4 282/296/4 279/104/4 281/277/4
f 282/296/4 275/291/4 278/2/4 279/104/4
f 294/307/27 291/308/27 280/306/27 277/305/27
f 293/314/27 297/318/27 284/317/27 281/313/27
f 304/4/2 305/277/2 303/104/2 302/2/2
f 299/291/2 301/292/2 304/4/2 302/2/2
f 308/295/2 306/296/2 303/104/2 305/277/2
f 306/296/2 299/291/2 302/2/2 303/104/2
f 318/307/24 315/308/24 304/306/24 301/305/24
f 317/314/24 321/318/24 308/317/24 305/313/24
f 328/4/4 329/277/4 327/104/4 326/2/4
f 323/291/4 325/292/4 328/4/4 326/2/4
f 332/295/4 330/296/4 327/104/4 329/277/4
f 330/296/4 323/291/4 326/2/4 327/104/4
f 342/307/27 339/308/27 328/306/27 325/305/27
f 341/314/27 345/318/27 332/317/27 329/313/27
f 352/4/3 353/277/3 351/104/3 350/2/3
f 347/291/3 349/292/3 352/4/3 350/2/3
f 356/295/3 354/296/3 351/104/3 353/25/3
f 354/296/3 347/291/3 350/2/3 351/104/3
f 366/307/30 363/308/30 352/306/30 349/305/30
f 365/314/30 369/318/30 356/317/30 353/313/30
f 376/4/3 377/277/3 375/104/3 374/2/3
f 371/291/3 373/292/3 376/4/3 374/2/3
f 380/295/3 378/296/3 375/104/3 377/25/3
f 378/296/3 371/291/3 374/2/3 375/104/3
f 390/307/30 387/308/30 376/306/30 373/305/30
f 389/314/30 393/318/30 380/317/30 377/313/30
f 400/4/3 401/277/3 399/104/3 398/2/3
f 395/291/3 397/292/3 400/4/3 398/2/3
f 404/295/3 402/296/3 399/104/3 401/25/3
f 402/296/3 395/291/3 398/2/3 399/104/3
f 414/307/30 411/308/30 400/306/30 397/305/30
f 413/314/30 417/318/30 404/317/30 401/313/30
f 424/4/2 425/277/2 423/104/2 422/2/2
f 419/291/2 421/292/2 424/4/2 422/2/2
f 428/295/2 426/296/2 423/104/2 425/277/2
f 426/296/2 419/291/2 422/2/2 423/104/2
f 438/307/24 435/308/24 424/306/24 421/305/24
f 437/314/24 441/318/24 428/317/24 425/313/24
f 448/4/4 449/277/4 447/104/4 446/2/4
f 443/291/4 445/292/4 448/4/4 446/2/4
f 452/295/4 450/336/4 447/26/4 449/277/4
f 450/296/4 443/337/4 446/2/4 447/104/4
f 462/339/27 459/308/27 448/306/27 445/305/27
f 461/314/27 465/318/27 452/317/27 449/313/27

usemtl house-roof
f 103/149/7 104/150/7 102/148/7 101/147/7
f 110/153/8 111/154/8 109/2/8 108/140/8
f 110/157/5 104/158/5 103/156/5 111/155/5
f 121/175/5 119/176/5 111/155/5 103/156/5
f 125/179/7 121/180/7 103/149/7 101/147/7
f 119/185/8 118/73/8 109/2/8 111/154/8
f 123/199/7 127/200/7 102/148/7 104/150/7
f 114/205/5 123/206/5 104/158/5 110/157/5
f 115/210/8 114/211/8 110/153/8 108/140/8
f 130/214/13 131/215/13 129/213/13 128/212/13
f 138/221/14 139/222/14 137/220/14 136/219/14
f 138/225/5 131/226/5 130/224/5 139/223/5
f 146/251/13 148/252/13 129/213/13 131/215/13
f 143/257/5 146/258/5 131/226/5 138/225/5
f 144/263/14 143/264/14 138/221/14 136/219/14
f 172/283/19 173/284/19 171/282/19 170/281/19
f 174/293/19 175/294/19 170/281/19 171/282/19
f 176/299/19 177/300/19 173/298/19 172/297/19
f 171/308/21 173/314/21 161/313/21 160/306/21
f 196/283/19 197/284/19 195/282/19 194/281/19
f 198/324/19 199/294/19 194/323/19 195/322/19
f 200/299/19 201/300/19 197/298/19 196/297/19
f 195/308/21 197/314/21 185/313/21 184/306/21
f 220/283/19 221/284/19 219/282/19 218/281/19
f 222/293/19 223/294/19 218/323/19 219/322/19
f 224/299/19 225/300/19 221/298/19 220/297/19
f 219/308/21 221/314/21 209/313/21 208/306/21
f 244/283/22 245/298/22 243/282/22 242/281/22
f 246/293/22 247/294/22 242/281/22 243/282/22
f 248/328/22 249/300/22 245/284/22 244/297/22
f 243/308/24 245/314/24 233/313/24 232/306/24
f 268/283/25 269/284/25 267/282/25 266/281/25
f 270/293/25 271/294/25 266/281/25 267/282/25
f 272/299/25 273/300/25 269/284/25 268/283/25
f 267/308/27 269/314/27 257/313/27 256/306/27
f 292/283/25 293/284/25 291/322/25 290/323/25
f 294/293/25 295/294/25 290/323/25 291/322/25
f 296/299/25 297/300/25 293/298/25 292/297/25
f 291/308/27 293/314/27 281/313/27 280/306/27
f 316/283/22 317/298/22 315/282/22 314/281/22
f 318/293/22 319/294/22 314/281/22 315/282/22
f 320/328/22 321/300/22 317/284/22 316/283/22
f 315/308/24 317/314/24 305/313/24 304/306/24
f 340/283/25 341/284/25 339/282/25 338/281/25
f 342/293/25 343/294/25 338/281/25 339/282/25
f 344/299/25 345/300/25 341/284/25 340/283/25
f 339/308/27 341/314/27 329/313/27 328/306/27
f 364/283/28 365/284/28 363/282/28 362/323/28
f 366/324/28 367/294/28 362/323/28 363/322/28
f 368/328/28 369/300/28 365/284/28 364/297/28
f 363/308/30 365/314/30 353/313/30 352/306/30
f 388/283/28 389/284/28 387/282/28 386/323/28
f 390/293/28 391/294/28 386/281/28 387/322/28
f 392/328/28 393/300/28 389/284/28 388/297/28
f 387/308/30 389/314/30 377/313/30 376/306/30
f 412/283/28 413/284/28 411/282/28 410/323/28
f 414/293/28 415/294/28 410/281/28 411/282/28
f 416/328/28 417/300/28 413/284/28 412/283/28
f 411/308/30 413/314/30 401/313/30 400/306/30
f 436/283/22 437/284/22 435/282/22 434/281/22
f 438/293/22 439/294/22 434/281/22 435/282/22
f 440/328/22 441/300/22 437/284/22 436/297/22
f 435/308/24 437/314/24 425/313/24 424/306/24
f 460/283/25 461/284/25 459/282/25 458/281/25
f 462/324/25 463/294/25 458/281/25 459/282/25
f 464/299/25 465/338/25 461/284/25 460/283/25
f 459/308/27 461/314/27 449/313/27 448/306/27

usemtl house-window
f 168/280/3 169/22/3 167/2/3 166/122/3
f 192/280/3 193/22/3 191/2/3 190/122/3
f 216/280/3 217/22/3 215/2/3 214/122/3
f 240/280/4 241/22/4 239/2/4 238/122/4
f 264/280/2 265/22/2 263/2/2 262/122/2
f 288/280/2 289/22/2 287/2/2 286/122/2
f 312/280/4 313/22/4 311/2/4 310/122/4
f 336/280/2 337/22/2 335/2/2 334/122/2
f 360/280/1 361/22/1 359/2/1 358/122/1
f 384/280/1 385/22/1 383/2/1 382/122/1
f 408/280/1 409/22/1 407/2/1 406/122/1
f 432/280/4 433/22/4 431/2/4 430/122/4
f 456/280/2 457/22/2 455/2/2 454/122/2

